<svg xmlns="http://www.w3.org/2000/svg" xmlns:xlink="http://www.w3.org/1999/xlink" width="600" zoomAndPan="magnify" viewBox="0 0 450 494.999988" height="660" preserveAspectRatio="xMidYMid meet" version="1.0"><rect x="-45" width="540" fill="#ffffff" y="-49.499999" height="593.999986" fill-opacity="1"/><rect x="-45" width="540" fill="#0f172a" y="-49.499999" height="593.999986" fill-opacity="1"/><path fill="#ffffff" d="M 361.230469 266.648438 C 351.859375 258.949219 340.871094 252.929688 330.445312 246.847656 C 325.046875 243.746094 319.582031 240.640625 314.058594 237.722656 C 320.578125 230.089844 326.597656 222.144531 332.183594 213.707031 C 344.597656 194.835938 358.871094 168.273438 342.363281 147.359375 C 334.726562 137.613281 322.75 135.441406 311.328125 139.164062 C 299.039062 143.199219 287.433594 150.460938 276.261719 156.792969 C 270.675781 159.957031 265.152344 163.308594 259.628906 166.722656 C 259.628906 166.722656 259.628906 166.722656 259.566406 166.660156 C 255.71875 156.109375 251.1875 145.742188 245.851562 135.628906 C 235.546875 116.386719 219.90625 93.175781 194.769531 96.648438 C 178.757812 98.882812 173.171875 111.171875 171.1875 125.015625 C 169.261719 124.765625 167.277344 124.828125 165.414062 125.324219 C 159.207031 126.9375 156.351562 132.835938 155.667969 138.855469 C 155.046875 144.6875 159.332031 149.40625 164.109375 152.074219 C 165.972656 153.128906 168.019531 154 170.128906 154.617188 C 170.128906 164.613281 170.378906 174.667969 170.9375 184.722656 C 163.488281 183.105469 156.105469 181.742188 148.65625 180.4375 C 135.996094 178.265625 122.277344 175.226562 109.304688 176.15625 C 98.257812 176.960938 86.589844 181.679688 81.003906 191.921875 C 74.984375 203.03125 78.957031 215.503906 85.90625 225.125 C 99.066406 243.25 119.796875 256.53125 138.726562 267.949219 C 135.496094 271.550781 132.332031 275.210938 129.292969 278.875 C 127.800781 280.613281 126.3125 282.410156 124.824219 284.210938 C 124.386719 283.964844 124.015625 283.777344 123.582031 283.589844 C 118.742188 281.542969 112.84375 281.046875 108.003906 283.28125 C 102.417969 285.761719 99.25 292.839844 101.484375 298.609375 C 102.726562 301.777344 105.023438 304.570312 107.507812 307.050781 C 106.886719 308.042969 106.265625 309.039062 105.707031 310.03125 C 99.871094 320.457031 97.328125 333.863281 103.71875 344.726562 C 109.492188 354.40625 120.601562 357.882812 131.339844 357.511719 C 142.261719 357.136719 153 353.785156 163.117188 349.8125 C 174.535156 345.34375 185.707031 340.070312 196.507812 334.296875 C 197.5 333.738281 198.496094 333.242188 199.488281 332.683594 C 202.03125 340.070312 204.761719 347.394531 207.617188 354.59375 C 212.457031 366.820312 216.925781 380.414062 225.804688 390.34375 C 233.1875 398.597656 245.105469 403.933594 256.152344 400.523438 C 265.898438 397.542969 272.164062 388.976562 276.015625 379.976562 C 283.773438 362.042969 285.324219 340.875 285.757812 321.140625 C 293.703125 322.382812 301.707031 323.3125 309.777344 323.683594 C 311.515625 329.269531 315.921875 334.050781 321.445312 336.097656 C 329.328125 339.015625 339.070312 335.042969 342.238281 327.097656 C 342.300781 327.097656 342.300781 327.097656 342.300781 327.035156 C 343.664062 325.175781 344.410156 323.125 344.535156 321.015625 C 358.375 317.355469 370.351562 309.472656 373.207031 293.769531 C 375.007812 282.785156 369.484375 273.351562 361.230469 266.648438 Z M 205.382812 317.476562 C 203.148438 310.589844 201.039062 303.636719 199.054688 296.6875 C 208.050781 300.039062 217.113281 303.203125 226.175781 306.121094 C 219.222656 309.84375 212.273438 313.691406 205.382812 317.476562 Z M 180.558594 197.566406 C 189.121094 199.554688 197.6875 201.789062 206.128906 204.148438 C 198.433594 210.230469 190.859375 216.558594 183.472656 223.078125 C 182.234375 214.574219 181.300781 206.070312 180.558594 197.566406 Z M 265.898438 208.179688 C 266.578125 210.601562 267.199219 213.023438 267.757812 215.503906 C 254.230469 209.734375 240.511719 204.582031 226.609375 199.925781 C 236.292969 192.539062 246.222656 185.527344 256.464844 178.949219 C 260.125 188.570312 263.226562 198.375 265.898438 208.179688 Z M 270.429688 226.550781 C 272.664062 236.359375 274.648438 246.164062 276.574219 256.035156 C 276.632812 260.007812 276.574219 263.976562 276.449219 268.011719 C 276.449219 268.011719 276.449219 268.011719 276.449219 268.074219 C 266.019531 278.066406 255.097656 287.5 244.050781 296.871094 C 240.449219 298.859375 236.789062 300.71875 233.125 302.582031 C 221.085938 299.105469 209.167969 295.074219 197.378906 290.914062 C 192.351562 272.480469 188.316406 253.863281 185.210938 235.054688 C 195.515625 225.433594 206.128906 216.25 217.113281 207.5 C 235.238281 212.835938 253.050781 219.167969 270.429688 226.550781 Z M 185.398438 284.832031 C 175.15625 278.625 165.164062 271.796875 154.863281 265.714844 C 154.800781 265.652344 154.738281 265.652344 154.675781 265.589844 C 161.9375 257.773438 169.386719 250.136719 177.019531 242.75 C 179.253906 256.964844 182.046875 270.992188 185.398438 284.832031 Z M 276.261719 275.832031 C 275.953125 283.777344 275.640625 291.660156 275.640625 299.542969 C 275.640625 303.699219 275.640625 307.859375 275.515625 312.015625 C 264.035156 310.214844 252.675781 307.734375 241.566406 304.816406 C 253.421875 295.507812 265.027344 285.949219 276.261719 275.832031 Z M 276.511719 229.160156 C 285.074219 232.882812 293.453125 236.855469 301.769531 241.136719 C 295.625 248.460938 289.171875 255.476562 282.40625 262.238281 C 280.667969 251.128906 278.746094 240.082031 276.511719 229.160156 Z M 291.40625 158.15625 C 301.148438 152.820312 314.246094 143.632812 325.914062 146.117188 C 336.09375 148.351562 341.304688 159.769531 341.367188 169.328125 C 341.429688 181.492188 335.160156 192.726562 329.140625 202.84375 C 322.6875 213.707031 315.363281 224.195312 307.417969 234.1875 C 296.496094 228.476562 285.386719 223.140625 274.152344 218.234375 C 273.53125 215.441406 272.847656 212.589844 272.164062 209.796875 C 269.371094 198.066406 266.207031 186.457031 262.421875 175.164062 C 271.917969 169.140625 281.539062 163.554688 291.40625 158.15625 Z M 179.128906 176.902344 C 178.820312 169.640625 178.695312 162.4375 178.632812 155.238281 C 180.121094 154.804688 181.550781 154.121094 182.855469 153.066406 C 187.820312 150.894531 192.289062 146.179688 190.734375 140.34375 C 190.054688 137.800781 188.5625 135.503906 186.824219 133.578125 C 185.957031 132.648438 185.027344 131.777344 184.03125 131.035156 C 183.722656 130.785156 183.351562 130.539062 182.976562 130.226562 L 182.730469 129.980469 C 182.605469 129.855469 182.417969 129.730469 182.296875 129.667969 C 181.738281 129.234375 181.179688 128.863281 180.558594 128.488281 C 180.121094 128.179688 179.6875 127.929688 179.191406 127.683594 C 179.6875 120.792969 181.238281 113.902344 186.207031 109.375 C 193.777344 102.484375 205.941406 104.160156 214.011719 109.125 C 219.660156 112.539062 224.1875 117.378906 227.976562 122.71875 C 228.039062 122.78125 228.039062 122.839844 228.097656 122.839844 C 224.003906 120.546875 219.71875 118.433594 215.375 116.636719 C 214.320312 116.199219 213.574219 118 214.632812 118.433594 C 219.78125 120.730469 224.808594 123.460938 229.527344 126.566406 C 230.332031 127.0625 231.078125 127.683594 231.886719 128.242188 C 233.125 130.164062 234.304688 132.152344 235.421875 134.136719 C 239.582031 141.214844 243.429688 148.472656 246.90625 155.984375 C 246.90625 155.984375 246.90625 156.046875 246.96875 156.046875 C 246.035156 155.363281 245.167969 154.679688 244.238281 154 C 236.914062 148.847656 229.15625 144.625 220.777344 141.523438 C 220.339844 141.335938 220.03125 142.082031 220.464844 142.332031 C 228.039062 146.300781 235.484375 150.769531 242.4375 155.859375 C 244.917969 157.660156 247.277344 159.585938 249.574219 161.570312 C 250.9375 164.550781 252.179688 167.589844 253.421875 170.632812 C 240.699219 178.699219 228.222656 187.390625 216.183594 196.511719 C 206.5625 193.535156 196.820312 190.863281 187.074219 188.445312 C 184.714844 187.824219 182.296875 187.265625 179.9375 186.707031 C 179.503906 183.417969 179.316406 180.128906 179.128906 176.902344 Z M 135.996094 254.171875 C 135.933594 254.171875 135.933594 254.109375 135.871094 254.109375 C 135.496094 253.675781 135.0625 253.304688 134.691406 252.867188 C 133.324219 251.378906 131.960938 249.890625 130.71875 248.335938 C 128.050781 245.046875 125.566406 241.632812 123.269531 238.035156 C 118.925781 231.144531 115.328125 223.761719 111.726562 216.5 C 111.601562 216.25 111.292969 216.4375 111.355469 216.683594 C 112.84375 225.0625 116.195312 232.757812 120.664062 240.019531 C 122.152344 242.441406 123.769531 244.738281 125.382812 247.035156 C 119.484375 242.9375 113.773438 238.53125 108.375 233.875 C 107.011719 232.695312 105.707031 231.519531 104.339844 230.277344 C 103.222656 227.359375 102.230469 224.441406 101.300781 221.464844 C 99.375 215.257812 98.074219 208.738281 96.894531 202.347656 C 96.769531 201.664062 95.714844 201.851562 95.714844 202.535156 C 95.402344 209.296875 96.335938 215.816406 97.949219 222.394531 C 98.132812 223.140625 98.382812 223.820312 98.570312 224.503906 C 95.28125 220.84375 92.425781 216.933594 90.375 212.527344 C 85.535156 201.851562 90.5 191.980469 101.363281 188.195312 C 112.71875 184.285156 126.25 187.511719 137.792969 189.25 C 149.152344 190.988281 160.449219 193.097656 171.621094 195.582031 C 172.488281 207.25 173.667969 218.980469 175.28125 230.585938 C 168.394531 236.855469 161.75 243.308594 155.296875 249.953125 C 152.007812 253.304688 148.78125 256.714844 145.675781 260.191406 C 142.386719 258.207031 139.160156 256.21875 135.996094 254.171875 Z M 149.523438 343.421875 C 141.394531 345.964844 132.207031 348.199219 123.707031 346.523438 C 112.160156 344.226562 108.1875 333.179688 111.292969 322.628906 C 112.285156 319.402344 113.652344 316.300781 115.390625 313.320312 C 117.5625 314.375 119.917969 315.058594 122.464844 314.933594 C 131.898438 314.5 134.816406 304.011719 133.140625 296.128906 C 133.140625 296.003906 133.140625 295.878906 133.078125 295.816406 C 132.828125 294.390625 132.457031 293.023438 131.898438 291.722656 C 137.050781 285.390625 142.261719 279.308594 147.664062 273.226562 C 151.695312 275.585938 155.730469 277.757812 159.890625 279.804688 C 159.890625 280.300781 160.136719 280.796875 160.695312 281.046875 C 169.449219 284.894531 178.324219 288.554688 187.261719 292.09375 C 189.246094 299.976562 191.480469 307.859375 193.839844 315.617188 C 194.523438 317.976562 195.265625 320.269531 196.074219 322.566406 C 181.179688 330.761719 165.722656 338.457031 149.523438 343.421875 Z M 240.511719 388.792969 C 229.714844 383.082031 225.183594 370.234375 220.777344 359.621094 C 216.367188 348.945312 212.335938 338.144531 208.609375 327.285156 C 212.273438 325.175781 215.871094 322.941406 219.472656 320.582031 C 219.90625 320.828125 220.464844 320.890625 220.898438 320.519531 C 225.925781 316.796875 231.015625 313.007812 235.980469 309.222656 C 236.230469 309.285156 236.417969 309.347656 236.664062 309.472656 C 249.449219 313.320312 262.359375 316.734375 275.394531 319.277344 C 275.332031 321.824219 275.269531 324.367188 275.082031 326.914062 C 275.082031 326.914062 275.082031 326.972656 275.082031 326.972656 C 273.71875 330.203125 272.105469 333.429688 270.242188 336.40625 C 269.25 338.023438 268.132812 339.511719 266.953125 341 C 266.953125 340.9375 266.890625 340.875 266.828125 340.875 C 266.640625 340.875 266.640625 341.125 266.765625 341.1875 C 263.539062 345.222656 259.875 348.882812 256.523438 352.792969 C 256.339844 352.980469 256.523438 353.414062 256.835938 353.289062 C 263.726562 350.496094 268.9375 344.601562 273.097656 338.640625 C 273.59375 337.898438 274.027344 337.152344 274.460938 336.40625 C 274.460938 336.40625 274.460938 336.46875 274.460938 336.46875 C 274.523438 336.53125 274.460938 336.53125 274.460938 336.53125 C 273.964844 342.738281 273.160156 348.945312 272.042969 355.089844 C 270.550781 358.253906 268.753906 361.359375 266.703125 364.152344 C 262.421875 370.046875 256.773438 374.886719 251.25 379.605469 C 251 379.792969 251.25 380.226562 251.558594 380.101562 C 258.882812 377.742188 264.71875 372.652344 269.496094 366.695312 C 265.339844 380.972656 256.773438 397.417969 240.511719 388.792969 Z M 356.574219 305.871094 C 352.476562 309.597656 347.511719 311.890625 342.175781 313.320312 C 341.492188 312.265625 340.5625 311.273438 339.570312 310.402344 C 334.976562 306.492188 328.644531 304.195312 322.5625 304.628906 C 319.644531 304.878906 316.730469 305.5625 314.246094 307.175781 C 311.265625 309.160156 309.527344 312.015625 308.96875 315.429688 C 301.210938 315.121094 293.453125 314.5 285.757812 313.566406 L 285.757812 313.320312 C 285.820312 305.066406 285.695312 296.871094 285.199219 288.617188 C 285.632812 288.308594 285.945312 287.933594 285.882812 287.316406 C 285.136719 281.292969 284.332031 275.210938 283.460938 269.191406 C 291.839844 261.433594 299.847656 253.488281 307.480469 245.109375 C 307.976562 245.542969 308.535156 245.980469 309.03125 246.414062 C 311.886719 249.082031 314.554688 252 317.101562 254.980469 C 322.191406 260.8125 326.535156 267.453125 330.382812 274.21875 C 330.753906 274.839844 331.808594 274.40625 331.5625 273.722656 C 330.257812 269.9375 328.769531 266.210938 326.722656 262.738281 C 324.671875 259.199219 322.3125 255.847656 319.832031 252.683594 C 318.839844 251.378906 317.722656 250.136719 316.605469 248.894531 C 316.605469 248.894531 316.667969 248.894531 316.667969 248.894531 C 322.4375 252 328.023438 255.289062 333.609375 258.640625 C 336.21875 261.433594 338.699219 264.414062 341.121094 267.453125 C 346.148438 273.847656 350.617188 280.796875 354.589844 287.875 C 354.898438 288.371094 355.769531 288.058594 355.519531 287.5 C 352.476562 279.742188 348.566406 272.667969 343.664062 265.964844 C 343.042969 265.09375 342.363281 264.351562 341.742188 263.480469 C 341.742188 263.480469 341.804688 263.542969 341.804688 263.542969 C 348.816406 267.640625 356.140625 272.171875 361.042969 278.378906 C 368.117188 287.375 364.457031 298.671875 356.574219 305.871094 Z M 356.574219 305.871094 " fill-opacity="1" fill-rule="nonzero"/><path fill="#ffffff" d="M 233.625 270.558594 C 235.300781 270.929688 237.035156 271.054688 238.710938 270.804688 C 240.699219 270.496094 242.808594 268.941406 244.050781 267.453125 C 246.78125 264.351562 247.960938 260.625 248.085938 256.53125 C 248.332031 248.710938 244.484375 240.703125 238.214844 236.046875 C 231.574219 231.144531 221.644531 231.144531 215.066406 236.171875 C 208.796875 241.015625 206.003906 249.394531 207.804688 257.027344 C 210.285156 267.824219 223.195312 275.957031 233.625 270.558594 Z M 217.859375 242.566406 C 218.914062 241.511719 219.535156 241.136719 221.085938 240.269531 C 221.519531 240.019531 221.769531 239.957031 222.636719 239.710938 C 223.011719 239.585938 223.382812 239.523438 223.816406 239.398438 C 224.003906 239.339844 224.128906 239.339844 224.3125 239.277344 C 224.4375 239.277344 224.5 239.214844 224.5625 239.214844 C 224.5625 239.214844 224.625 239.214844 224.625 239.214844 C 226.300781 239.027344 228.039062 239.089844 229.464844 239.398438 C 230.148438 239.523438 230.832031 239.773438 231.511719 239.957031 C 232.007812 240.144531 231.449219 239.898438 232.070312 240.207031 C 232.445312 240.394531 232.816406 240.578125 233.1875 240.828125 C 234.554688 241.632812 234.925781 241.945312 236.167969 243.1875 C 236.417969 243.433594 236.664062 243.746094 236.914062 244.054688 C 237.347656 244.550781 236.976562 244.117188 237.285156 244.488281 C 237.71875 245.109375 238.152344 245.730469 238.464844 246.414062 C 238.652344 246.722656 238.835938 247.097656 238.960938 247.46875 C 239.269531 248.152344 239.023438 247.46875 239.210938 247.964844 C 239.457031 248.648438 239.707031 249.394531 239.953125 250.136719 C 240.140625 250.882812 240.328125 251.628906 240.449219 252.371094 C 240.449219 252.496094 240.449219 252.496094 240.511719 252.558594 C 240.511719 252.621094 240.511719 252.621094 240.511719 252.683594 C 240.574219 253.117188 240.574219 253.550781 240.636719 253.984375 C 240.699219 254.855469 240.636719 255.660156 240.574219 256.53125 C 240.574219 256.714844 240.511719 256.839844 240.511719 257.027344 C 240.511719 257.027344 240.511719 257.089844 240.511719 257.089844 C 240.449219 257.460938 240.386719 257.773438 240.265625 258.144531 C 240.140625 258.515625 240.078125 258.949219 239.953125 259.324219 C 239.890625 259.449219 239.769531 259.882812 239.644531 260.128906 C 239.519531 260.378906 239.269531 260.9375 239.332031 260.9375 C 239.332031 261 239.269531 261.183594 239.210938 261.308594 C 239.148438 261.496094 238.898438 261.992188 238.835938 262.117188 C 238.464844 262.796875 238.03125 263.417969 237.59375 264.039062 C 237.535156 264.164062 237.160156 264.660156 237.160156 264.722656 C 236.914062 265.03125 236.664062 265.28125 236.417969 265.53125 C 235.300781 266.832031 234.554688 268.199219 233.3125 269.378906 C 228.597656 269.316406 223.816406 266.894531 220.15625 264.101562 C 218.976562 263.234375 217.363281 261.679688 216.742188 260.8125 C 216.308594 260.191406 215.871094 259.570312 215.5 258.949219 C 215.3125 258.578125 215.128906 258.269531 214.941406 257.894531 C 214.941406 257.894531 214.878906 257.773438 214.816406 257.648438 C 214.753906 257.523438 214.632812 257.089844 214.632812 257.089844 C 212.894531 251.9375 214.074219 246.289062 217.859375 242.566406 Z M 217.859375 242.566406 " fill-opacity="1" fill-rule="nonzero"/><path fill="#ffffff" d="M 350.058594 199.617188 C 348.691406 201.914062 347.140625 204.148438 345.464844 206.195312 C 343.914062 208.121094 342.050781 209.855469 340.625 211.90625 C 339.445312 213.644531 341.742188 215.816406 343.480469 214.761719 C 347.824219 212.03125 351.238281 206.628906 353.71875 202.222656 C 356.449219 197.445312 358.5 192.167969 359.800781 186.832031 C 362.410156 176.09375 361.972656 164.734375 358.375 154.246094 C 357.691406 152.382812 354.773438 153.128906 355.332031 155.054688 C 358.4375 164.984375 358.621094 175.660156 355.890625 185.714844 C 354.527344 190.617188 352.601562 195.273438 350.058594 199.617188 Z M 350.058594 199.617188 " fill-opacity="1" fill-rule="nonzero"/><path fill="#ffffff" d="M 337.273438 219.292969 C 336.960938 219.414062 336.652344 219.476562 336.339844 219.601562 C 335.71875 219.851562 335.410156 220.285156 335.039062 220.84375 C 334.601562 221.464844 334.167969 222.085938 333.796875 222.703125 C 332.988281 224.007812 332.121094 225.25 331.191406 226.429688 C 330.195312 227.667969 329.078125 228.726562 328.085938 229.902344 C 327.03125 231.082031 325.914062 232.261719 324.734375 233.316406 C 324.175781 233.8125 324.921875 234.621094 325.542969 234.371094 C 327.03125 233.691406 328.457031 232.882812 329.824219 232.015625 C 331.25 231.144531 332.492188 229.902344 333.671875 228.726562 C 334.914062 227.484375 336.03125 226.179688 337.023438 224.816406 C 337.519531 224.195312 337.894531 223.511719 338.265625 222.828125 C 338.574219 222.332031 338.824219 221.835938 338.761719 221.214844 C 338.761719 220.78125 338.574219 220.410156 338.511719 219.972656 C 338.328125 219.476562 337.769531 219.167969 337.273438 219.292969 Z M 337.273438 219.292969 " fill-opacity="1" fill-rule="nonzero"/><path fill="#ffffff" d="M 233.125 106.519531 C 234.800781 107.699219 236.355469 109 237.84375 110.367188 C 240.761719 113.035156 243.554688 115.953125 245.914062 119.179688 C 250.628906 125.632812 253.359375 133.082031 256.773438 140.21875 C 256.898438 140.46875 257.269531 140.34375 257.269531 140.097656 C 257.703125 131.777344 253.730469 123.710938 249.078125 117.007812 C 246.71875 113.53125 243.988281 110.242188 240.824219 107.449219 C 239.332031 106.085938 237.78125 104.84375 236.167969 103.664062 C 234.617188 102.484375 232.507812 100.621094 230.519531 100.3125 C 229.15625 100.125 227.355469 101.554688 228.472656 102.980469 C 229.652344 104.53125 231.574219 105.402344 233.125 106.519531 Z M 233.125 106.519531 " fill-opacity="1" fill-rule="nonzero"/><path fill="#ffffff" d="M 213.078125 93.421875 C 214.074219 93.546875 215.003906 93.796875 215.933594 94.105469 C 216.925781 94.476562 217.921875 94.664062 218.914062 95.035156 C 219.347656 95.222656 219.410156 95.222656 219.96875 95.53125 C 220.402344 95.78125 220.898438 96.03125 221.335938 96.277344 C 221.519531 96.402344 221.769531 96.464844 221.953125 96.589844 C 222.078125 96.648438 222.140625 96.710938 222.015625 96.589844 C 222.328125 96.710938 222.636719 96.898438 222.949219 97.023438 C 223.570312 97.207031 224.128906 97.023438 224.6875 96.835938 C 225.058594 96.710938 225.246094 96.402344 225.304688 96.03125 C 225.367188 95.472656 225.367188 94.851562 225.058594 94.355469 C 224.6875 93.796875 223.941406 93.175781 223.382812 92.863281 C 222.328125 92.304688 221.148438 91.871094 219.96875 91.621094 C 218.914062 91.375 217.671875 91.0625 216.554688 91.1875 C 215.375 91.3125 214.257812 91.5625 213.140625 91.933594 C 212.398438 92.121094 212.210938 93.296875 213.078125 93.421875 Z M 213.078125 93.421875 " fill-opacity="1" fill-rule="nonzero"/><path fill="#ffffff" d="M 165.847656 353.601562 C 161.8125 354.34375 158.277344 356.269531 154.429688 357.574219 C 150.394531 358.9375 146.296875 359.867188 142.078125 360.550781 C 137.855469 361.234375 133.636719 361.667969 129.355469 362.101562 C 125.257812 362.476562 121.160156 362.722656 117.25 364.027344 C 117.003906 364.089844 117.003906 364.460938 117.25 364.523438 C 121.347656 365.640625 125.566406 365.640625 129.789062 365.515625 C 134.257812 365.394531 138.726562 365.082031 143.132812 364.398438 C 147.476562 363.777344 151.757812 362.785156 155.917969 361.421875 C 160.015625 360.054688 163.984375 358.628906 166.777344 355.152344 C 167.398438 354.46875 166.839844 353.414062 165.847656 353.601562 Z M 165.847656 353.601562 " fill-opacity="1" fill-rule="nonzero"/><path fill="#ffffff" d="M 182.417969 347.332031 C 181.117188 348.261719 179.75 349.132812 178.324219 349.8125 C 178.011719 350 177.640625 350.125 177.328125 350.3125 C 177.144531 350.371094 176.957031 350.496094 176.769531 350.558594 C 176.769531 350.558594 176.710938 350.558594 176.710938 350.558594 C 176.648438 350.558594 176.398438 350.683594 176.460938 350.683594 C 176.027344 350.871094 175.53125 350.992188 175.09375 351.242188 C 174.722656 351.429688 174.414062 351.675781 174.101562 351.863281 C 173.480469 352.234375 172.488281 353.164062 172.613281 354.035156 C 172.738281 354.964844 174.226562 355.277344 175.035156 355.214844 C 175.46875 355.152344 175.839844 355.089844 176.273438 355.027344 C 176.832031 354.902344 177.328125 354.71875 177.828125 354.46875 C 178.570312 354.097656 179.253906 353.722656 179.9375 353.351562 C 181.550781 352.421875 183.101562 351.304688 184.589844 350.0625 C 185.210938 349.503906 185.210938 348.449219 184.714844 347.828125 C 184.15625 347.207031 183.101562 346.835938 182.417969 347.332031 Z M 182.417969 347.332031 " fill-opacity="1" fill-rule="nonzero"/><path fill="#ffffff" d="M 291.839844 345.097656 C 292.585938 353.351562 291.714844 361.730469 289.417969 369.675781 C 288.300781 373.710938 286.75 377.621094 284.828125 381.34375 C 283.277344 384.382812 279.984375 387.859375 279.984375 391.335938 C 279.984375 391.832031 280.484375 392.203125 280.917969 392.019531 C 284.515625 390.902344 286.566406 385.875 288.117188 382.769531 C 290.039062 378.859375 291.652344 374.765625 292.769531 370.542969 C 295.066406 362.101562 295.378906 353.351562 294.074219 344.726562 C 293.828125 343.546875 291.714844 343.855469 291.839844 345.097656 Z M 291.839844 345.097656 " fill-opacity="1" fill-rule="nonzero"/><path fill="#ffffff" d="M 275.640625 395.183594 C 275.269531 395.183594 274.835938 395.183594 274.460938 395.183594 C 274.027344 395.183594 273.65625 395.308594 273.222656 395.433594 C 272.722656 395.554688 272.226562 395.679688 271.792969 395.929688 C 271.421875 396.113281 271.046875 396.300781 270.675781 396.488281 C 269.929688 396.859375 269.25 397.230469 268.503906 397.605469 C 268.316406 397.667969 268.132812 397.789062 268.007812 397.851562 C 267.695312 398.039062 267.449219 398.289062 267.199219 398.597656 C 266.953125 398.90625 266.765625 399.21875 266.519531 399.464844 C 266.082031 400.023438 266.640625 400.832031 267.324219 400.832031 C 267.695312 400.832031 268.132812 400.832031 268.503906 400.832031 C 269.0625 400.832031 269.496094 400.582031 270.054688 400.335938 C 270.800781 399.964844 271.546875 399.589844 272.351562 399.21875 C 272.722656 399.03125 273.097656 398.90625 273.46875 398.660156 C 273.839844 398.472656 274.152344 398.164062 274.460938 397.914062 C 274.898438 397.605469 275.269531 397.292969 275.578125 396.921875 C 275.828125 396.613281 276.015625 396.300781 276.261719 396.054688 C 276.449219 395.742188 276.074219 395.183594 275.640625 395.183594 Z M 275.640625 395.183594 " fill-opacity="1" fill-rule="nonzero"/><path fill="#ffffff" d="M 327.898438 158.714844 C 328.335938 160.265625 329.015625 161.757812 329.453125 163.308594 C 330.257812 166.347656 330.753906 169.515625 330.691406 172.742188 C 330.691406 173.609375 331.191406 174.355469 331.871094 174.789062 C 332.679688 175.285156 333.484375 175.226562 334.292969 174.789062 C 335.039062 174.417969 335.472656 173.550781 335.472656 172.742188 C 335.472656 169.082031 334.914062 165.417969 333.609375 162.003906 C 332.925781 160.265625 332.246094 158.46875 331.066406 157.039062 C 330.570312 156.355469 330.011719 155.734375 329.390625 155.117188 C 328.769531 154.496094 328.210938 154.121094 327.339844 153.875 C 327.03125 153.75 326.722656 154.058594 326.722656 154.308594 C 326.722656 155.175781 326.84375 155.796875 327.15625 156.605469 C 327.464844 157.289062 327.714844 158.03125 327.898438 158.714844 Z M 327.898438 158.714844 " fill-opacity="1" fill-rule="nonzero"/><path fill="#ffffff" d="M 232.628906 248.277344 C 232.691406 248.835938 232.816406 249.269531 232.941406 249.765625 C 233.003906 249.953125 233.066406 250.199219 233.066406 250.386719 C 233.066406 250.511719 233.125 250.570312 233.125 250.695312 C 233.125 250.757812 233.125 250.757812 233.125 250.757812 C 233.1875 251.628906 233.25 252.496094 233.25 253.363281 C 233.25 253.613281 233.25 253.800781 233.1875 253.984375 C 233.1875 254.109375 233.1875 254.171875 233.1875 254.296875 C 233.125 254.730469 233.003906 255.164062 232.878906 255.597656 C 232.628906 256.59375 233.25 257.832031 234.242188 258.082031 C 235.238281 258.332031 236.476562 257.773438 236.726562 256.714844 C 236.726562 256.65625 236.726562 256.59375 236.789062 256.53125 C 236.789062 256.53125 236.789062 256.46875 236.789062 256.46875 C 237.285156 254.359375 237.347656 252.1875 236.664062 250.136719 C 236.292969 249.082031 235.917969 247.902344 235.113281 247.160156 C 234.429688 246.476562 233.625 245.917969 232.816406 245.359375 C 232.320312 245.046875 231.886719 245.667969 232.070312 246.101562 C 232.445312 246.785156 232.566406 247.53125 232.628906 248.277344 Z M 236.042969 254.421875 C 235.980469 254.421875 235.980469 254.359375 235.917969 254.359375 C 236.167969 254.421875 236.167969 254.480469 236.042969 254.421875 Z M 235.484375 254.109375 C 235.421875 254.109375 235.359375 254.109375 235.300781 254.109375 C 235.113281 254.046875 235.113281 253.984375 235.484375 254.109375 Z M 235.484375 254.109375 " fill-opacity="1" fill-rule="nonzero"/></svg>