<svg xmlns="http://www.w3.org/2000/svg" xmlns:xlink="http://www.w3.org/1999/xlink" width="500" zoomAndPan="magnify" viewBox="0 0 375 374.999991" height="500" preserveAspectRatio="xMidYMid meet" version="1.0"><defs><g/><clipPath id="2692b3fa81"><path d="M 28.089844 28.089844 L 346.910156 28.089844 L 346.910156 346.910156 L 28.089844 346.910156 Z M 28.089844 28.089844 " clip-rule="nonzero"/></clipPath><clipPath id="4c30d443a7"><path d="M 187.5 346.910156 C 144.941406 346.910156 104.863281 330.34375 74.792969 300.207031 C 44.65625 270.136719 28.089844 230.058594 28.089844 187.5 C 28.089844 144.941406 44.65625 104.863281 74.792969 74.792969 C 104.863281 44.65625 144.941406 28.089844 187.5 28.089844 C 230.058594 28.089844 270.136719 44.65625 300.207031 74.792969 C 330.34375 104.929688 346.910156 144.941406 346.910156 187.5 C 346.910156 230.058594 330.34375 270.136719 300.207031 300.207031 C 270.136719 330.34375 230.058594 346.910156 187.5 346.910156 Z M 187.5 37.648438 C 147.488281 37.648438 109.835938 53.257812 81.546875 81.546875 C 53.257812 109.835938 37.648438 147.488281 37.648438 187.5 C 37.648438 227.511719 53.257812 265.164062 81.546875 293.453125 C 109.835938 321.742188 147.488281 337.351562 187.5 337.351562 C 227.511719 337.351562 265.164062 321.742188 293.453125 293.453125 C 321.742188 265.164062 337.351562 227.511719 337.351562 187.5 C 337.351562 147.488281 321.742188 109.835938 293.453125 81.546875 C 265.164062 53.257812 227.511719 37.648438 187.5 37.648438 Z M 187.5 37.648438 " clip-rule="nonzero"/></clipPath><clipPath id="f63fbb7b25"><path d="M 54.8125 135.496094 L 319.878906 135.496094 L 319.878906 248.566406 L 54.8125 248.566406 Z M 54.8125 135.496094 " clip-rule="nonzero"/></clipPath><clipPath id="6cc8499e71"><path d="M 106 105 L 284.140625 105 L 284.140625 284.0625 L 106 284.0625 Z M 106 105 " clip-rule="nonzero"/></clipPath></defs><g clip-path="url(#2692b3fa81)"><g clip-path="url(#4c30d443a7)"><path fill="#000000" d="M 28.089844 28.089844 L 346.910156 28.089844 L 346.910156 346.910156 L 28.089844 346.910156 Z M 28.089844 28.089844 " fill-opacity="1" fill-rule="nonzero"/></g></g><g clip-path="url(#f63fbb7b25)"><path fill="#112241" d="M 311.972656 222.875 C 308.609375 234.328125 303.472656 245.195312 297.097656 255.203125 C 291.835938 263.347656 285.851562 271.003906 279.125 277.964844 C 278.257812 278.917969 277.285156 279.769531 276.363281 280.664062 C 275.425781 281.546875 274.511719 282.457031 273.554688 283.316406 L 270.636719 285.851562 L 269.179688 287.121094 L 267.667969 288.324219 L 264.652344 290.734375 C 263.628906 291.515625 262.574219 292.253906 261.539062 293.023438 C 259.488281 294.589844 257.3125 295.96875 255.179688 297.417969 C 254.871094 297.625 254.546875 297.839844 254.210938 298.066406 C 253.863281 298.277344 253.503906 298.492188 253.125 298.71875 C 252.375 299.167969 251.5625 299.652344 250.703125 300.167969 C 249 301.238281 246.980469 302.246094 244.808594 303.402344 C 244.257812 303.683594 243.710938 303.992188 243.132812 304.269531 C 242.550781 304.542969 241.957031 304.816406 241.351562 305.097656 C 240.140625 305.65625 238.886719 306.234375 237.59375 306.832031 C 234.945312 307.871094 232.179688 309.113281 229.164062 310.078125 C 217.261719 314.394531 202.40625 317.0625 187.496094 317.125 C 172.589844 317.0625 157.734375 314.394531 145.832031 310.078125 C 142.816406 309.113281 140.050781 307.871094 137.398438 306.832031 C 136.105469 306.234375 134.855469 305.65625 133.644531 305.097656 C 133.039062 304.816406 132.445312 304.542969 131.863281 304.273438 C 131.285156 303.996094 130.738281 303.683594 130.191406 303.402344 C 128.015625 302.246094 125.996094 301.238281 124.292969 300.167969 C 123.433594 299.652344 122.621094 299.167969 121.871094 298.71875 C 121.496094 298.492188 121.132812 298.277344 120.785156 298.066406 C 120.449219 297.839844 120.125 297.625 119.816406 297.417969 C 111.71875 292.109375 104.109375 286.082031 97.195312 279.308594 C 89.898438 272.023438 83.523438 263.859375 77.898438 255.207031 C 71.523438 245.195312 66.386719 234.328125 63.023438 222.875 C 59.519531 211.460938 57.898438 199.480469 57.796875 187.496094 C 57.898438 175.515625 59.519531 163.535156 63.023438 152.121094 C 66.386719 140.664062 71.523438 129.800781 77.898438 119.792969 C 83.160156 111.648438 89.144531 103.992188 95.867188 97.03125 C 96.738281 96.078125 97.710938 95.226562 98.632812 94.328125 C 99.570312 93.449219 100.484375 92.539062 101.441406 91.675781 L 104.355469 89.140625 L 105.8125 87.871094 L 107.328125 86.671875 L 110.34375 84.261719 C 111.367188 83.480469 112.421875 82.738281 113.457031 81.972656 C 115.503906 80.40625 117.683594 79.027344 119.816406 77.578125 C 120.125 77.371094 120.445312 77.15625 120.785156 76.929688 C 121.132812 76.71875 121.492188 76.503906 121.867188 76.277344 C 122.621094 75.824219 123.429688 75.34375 124.292969 74.828125 C 125.996094 73.757812 128.011719 72.75 130.1875 71.59375 C 130.734375 71.308594 131.285156 71 131.863281 70.726562 C 132.445312 70.453125 133.039062 70.179688 133.644531 69.898438 C 134.851562 69.339844 136.105469 68.761719 137.398438 68.164062 C 140.050781 67.125 142.816406 65.882812 145.832031 64.917969 C 157.734375 60.601562 172.589844 57.933594 187.496094 57.871094 C 202.40625 57.933594 217.261719 60.601562 229.164062 64.917969 C 232.179688 65.882812 234.941406 67.125 237.59375 68.164062 C 238.886719 68.761719 240.140625 69.339844 241.351562 69.898438 C 241.957031 70.179688 242.550781 70.453125 243.132812 70.722656 C 243.710938 71 244.257812 71.308594 244.804688 71.59375 C 246.980469 72.746094 249 73.757812 250.699219 74.824219 C 251.5625 75.34375 252.371094 75.824219 253.125 76.277344 C 253.5 76.5 253.863281 76.71875 254.210938 76.929688 C 254.546875 77.152344 254.871094 77.371094 255.175781 77.578125 C 263.277344 82.882812 270.886719 88.914062 277.800781 95.6875 C 285.097656 102.972656 291.472656 111.136719 297.097656 119.789062 C 303.472656 129.796875 308.609375 140.664062 311.972656 152.121094 C 315.476562 163.535156 317.09375 175.515625 317.199219 187.496094 C 317.09375 199.480469 315.476562 211.460938 311.972656 222.875 Z M 320.179688 187.410156 L 320.179688 187.398438 C 320.070312 175.164062 318.425781 162.921875 314.859375 151.25 C 311.433594 139.542969 306.179688 128.429688 299.636719 118.222656 L 296.488281 113.492188 C 296.488281 113.492188 295.582031 112.21875 294.21875 110.3125 C 292.902344 108.367188 290.894531 105.964844 288.972656 103.5 C 286.90625 101.15625 284.921875 98.738281 283.253906 97.089844 C 281.632812 95.398438 280.554688 94.269531 280.554688 94.269531 C 280.554688 94.269531 280.28125 93.992188 279.789062 93.519531 C 279.296875 93.042969 278.59375 92.363281 277.753906 91.550781 C 276.109375 89.875 273.722656 87.859375 271.382812 85.789062 C 270.179688 84.792969 268.945312 83.835938 267.804688 82.917969 C 267.230469 82.460938 266.675781 82.019531 266.152344 81.601562 C 265.609375 81.210938 265.09375 80.839844 264.617188 80.496094 C 262.71875 79.125 261.449219 78.210938 261.449219 78.210938 C 261.449219 78.210938 261.175781 77.988281 260.730469 77.699219 C 260.285156 77.402344 259.695312 77.007812 259.109375 76.613281 C 257.929688 75.824219 256.75 75.035156 256.75 75.035156 C 256.4375 74.824219 256.105469 74.601562 255.761719 74.367188 C 255.40625 74.152344 255.039062 73.929688 254.65625 73.699219 C 253.886719 73.234375 253.058594 72.738281 252.175781 72.207031 C 250.433594 71.113281 248.375 70.074219 246.148438 68.890625 C 245.589844 68.597656 245.027344 68.285156 244.433594 68 C 243.839844 67.722656 243.230469 67.4375 242.613281 67.148438 C 241.378906 66.578125 240.09375 65.984375 238.769531 65.371094 C 236.058594 64.304688 233.230469 63.035156 230.144531 62.039062 C 217.960938 57.613281 202.75 54.875 187.496094 54.8125 C 172.242188 54.875 157.03125 57.613281 144.851562 62.039062 C 141.765625 63.035156 138.933594 64.304688 136.222656 65.371094 C 134.898438 65.984375 133.617188 66.578125 132.378906 67.152344 C 131.761719 67.4375 131.15625 67.722656 130.558594 68 C 129.96875 68.285156 129.40625 68.597656 128.847656 68.890625 C 126.621094 70.074219 124.558594 71.113281 122.816406 72.207031 C 121.9375 72.738281 121.109375 73.234375 120.339844 73.699219 C 119.957031 73.929688 119.585938 74.152344 119.234375 74.367188 C 118.886719 74.601562 118.558594 74.824219 118.242188 75.035156 C 118.242188 75.035156 117.066406 75.824219 115.886719 76.613281 C 115.296875 77.007812 114.707031 77.402344 114.265625 77.699219 C 113.820312 77.988281 113.542969 78.210938 113.542969 78.210938 C 113.542969 78.210938 112.277344 79.125 110.378906 80.496094 C 109.902344 80.839844 109.386719 81.210938 108.84375 81.601562 C 108.316406 82.019531 107.765625 82.460938 107.191406 82.917969 C 106.050781 83.835938 104.8125 84.792969 103.613281 85.789062 C 101.273438 87.859375 98.886719 89.875 97.242188 91.550781 C 96.402344 92.363281 95.699219 93.042969 95.207031 93.519531 C 94.714844 93.992188 94.441406 94.269531 94.441406 94.269531 C 94.441406 94.269531 93.363281 95.398438 91.742188 97.089844 C 90.074219 98.738281 88.089844 101.15625 86.019531 103.5 C 84.101562 105.964844 82.089844 108.367188 80.777344 110.3125 C 79.414062 112.222656 78.503906 113.492188 78.503906 113.492188 L 75.359375 118.222656 C 68.8125 128.429688 63.5625 139.542969 60.136719 151.25 C 56.570312 162.925781 54.925781 175.164062 54.816406 187.398438 L 54.816406 187.410156 L 54.8125 187.496094 L 54.816406 187.585938 L 54.816406 187.597656 C 54.925781 199.832031 56.570312 212.074219 60.136719 223.746094 C 63.5625 235.453125 68.8125 246.566406 75.359375 256.773438 L 78.503906 261.5 C 78.503906 261.5 79.414062 262.773438 80.777344 264.683594 C 82.09375 266.628906 84.101562 269.027344 86.019531 271.496094 C 88.089844 273.839844 90.074219 276.257812 91.742188 277.90625 C 93.363281 279.597656 94.441406 280.726562 94.441406 280.726562 C 94.441406 280.726562 94.714844 281.003906 95.207031 281.476562 C 95.699219 281.953125 96.402344 282.632812 97.242188 283.445312 C 98.886719 285.121094 101.273438 287.136719 103.613281 289.207031 C 104.8125 290.203125 106.050781 291.160156 107.191406 292.078125 C 107.765625 292.535156 108.316406 292.972656 108.84375 293.390625 C 109.386719 293.785156 109.902344 294.15625 110.378906 294.5 C 112.277344 295.871094 113.542969 296.785156 113.542969 296.785156 C 113.542969 296.785156 113.820312 297.007812 114.265625 297.296875 C 114.710938 297.59375 115.296875 297.988281 115.886719 298.382812 C 117.066406 299.171875 118.246094 299.960938 118.246094 299.960938 C 118.558594 300.171875 118.886719 300.394531 119.234375 300.625 C 119.585938 300.84375 119.957031 301.066406 120.339844 301.296875 C 121.109375 301.761719 121.9375 302.257812 122.820312 302.785156 C 124.5625 303.882812 126.621094 304.921875 128.847656 306.105469 C 129.40625 306.394531 129.96875 306.710938 130.5625 306.996094 C 131.15625 307.273438 131.761719 307.558594 132.378906 307.84375 C 133.617188 308.417969 134.902344 309.011719 136.222656 309.625 C 138.9375 310.691406 141.765625 311.960938 144.851562 312.957031 C 157.03125 317.378906 172.242188 320.121094 187.496094 320.183594 C 202.75 320.121094 217.960938 317.378906 230.144531 312.953125 C 233.230469 311.960938 236.058594 310.691406 238.773438 309.625 C 240.09375 309.011719 241.378906 308.417969 242.613281 307.84375 C 243.234375 307.554688 243.839844 307.273438 244.4375 306.996094 C 245.027344 306.710938 245.589844 306.394531 246.148438 306.105469 C 248.375 304.921875 250.4375 303.882812 252.175781 302.785156 C 253.058594 302.257812 253.886719 301.757812 254.65625 301.296875 C 255.039062 301.066406 255.410156 300.839844 255.761719 300.625 C 256.109375 300.394531 256.4375 300.171875 256.75 299.960938 C 256.75 299.960938 257.929688 299.171875 259.109375 298.382812 C 259.699219 297.988281 260.289062 297.59375 260.730469 297.296875 C 261.175781 297.007812 261.449219 296.785156 261.449219 296.785156 C 261.449219 296.785156 262.71875 295.871094 264.617188 294.5 C 265.09375 294.15625 265.609375 293.785156 266.152344 293.390625 C 266.675781 292.972656 267.230469 292.535156 267.804688 292.078125 C 268.945312 291.160156 270.179688 290.203125 271.382812 289.207031 C 273.722656 287.136719 276.109375 285.121094 277.753906 283.445312 C 278.59375 282.632812 279.296875 281.953125 279.789062 281.476562 C 280.28125 281.003906 280.554688 280.726562 280.554688 280.726562 C 280.554688 280.726562 281.632812 279.597656 283.253906 277.90625 C 284.921875 276.257812 286.90625 273.839844 288.972656 271.496094 C 290.894531 269.027344 292.90625 266.628906 294.21875 264.683594 C 295.582031 262.773438 296.488281 261.5 296.488281 261.5 L 299.636719 256.773438 C 306.179688 246.566406 311.433594 235.453125 314.859375 223.746094 C 318.425781 212.070312 320.070312 199.828125 320.179688 187.59375 L 320.179688 187.585938 L 320.183594 187.496094 L 320.179688 187.410156 " fill-opacity="1" fill-rule="nonzero"/></g><path fill="#ffffff" d="M 273.855469 180.261719 C 273.957031 181.714844 274.023438 183.171875 274.054688 184.632812 C 274.085938 186.089844 274.082031 187.550781 274.042969 189.007812 C 274.003906 190.464844 273.925781 191.921875 273.816406 193.378906 C 273.707031 194.832031 273.558594 196.285156 273.375 197.730469 C 273.195312 199.179688 272.976562 200.621094 272.722656 202.058594 C 272.472656 203.496094 272.183594 204.925781 271.863281 206.347656 C 271.539062 207.773438 271.183594 209.1875 270.789062 210.589844 C 270.398438 211.996094 269.972656 213.390625 269.511719 214.773438 C 269.054688 216.160156 268.558594 217.53125 268.03125 218.890625 C 267.503906 220.25 266.945312 221.597656 266.351562 222.929688 C 265.761719 224.261719 265.136719 225.578125 264.476562 226.878906 C 263.820312 228.179688 263.132812 229.464844 262.414062 230.734375 C 261.691406 232 260.941406 233.25 260.160156 234.480469 C 259.378906 235.710938 258.570312 236.921875 257.730469 238.113281 C 256.886719 239.304688 256.019531 240.472656 255.121094 241.621094 C 254.222656 242.765625 253.300781 243.890625 252.347656 244.996094 C 251.394531 246.097656 250.414062 247.175781 249.410156 248.230469 C 248.40625 249.28125 247.375 250.3125 246.320312 251.3125 C 245.265625 252.316406 244.183594 253.292969 243.082031 254.242188 C 241.980469 255.191406 240.851562 256.117188 239.703125 257.011719 C 238.554688 257.902344 237.386719 258.769531 236.195312 259.605469 C 235.003906 260.441406 233.796875 261.25 232.566406 262.027344 C 231.335938 262.804688 230.085938 263.550781 228.820312 264.265625 C 227.554688 264.980469 226.269531 265.664062 224.96875 266.316406 C 223.671875 266.96875 222.355469 267.589844 221.023438 268.175781 C 219.695312 268.765625 218.351562 269.320312 216.992188 269.839844 C 215.636719 270.363281 214.265625 270.847656 212.886719 271.304688 C 211.503906 271.757812 210.113281 272.175781 208.710938 272.5625 C 207.308594 272.945312 205.898438 273.296875 204.480469 273.613281 C 203.058594 273.925781 201.632812 274.207031 200.203125 274.453125 C 198.769531 274.699219 197.332031 274.910156 195.890625 275.082031 C 194.445312 275.257812 193 275.394531 191.550781 275.5 C 190.101562 275.601562 188.648438 275.667969 187.195312 275.699219 C 185.742188 275.734375 184.289062 275.726562 182.835938 275.6875 C 181.382812 275.648438 179.933594 275.574219 178.484375 275.460938 C 177.035156 275.347656 175.589844 275.203125 174.148438 275.019531 C 172.707031 274.835938 171.269531 274.617188 169.839844 274.363281 C 168.40625 274.109375 166.984375 273.820312 165.566406 273.5 C 164.148438 273.175781 162.742188 272.816406 161.339844 272.421875 C 159.941406 272.027344 158.554688 271.601562 157.175781 271.140625 C 155.796875 270.679688 154.429688 270.183594 153.074219 269.652344 C 151.71875 269.125 150.378906 268.5625 149.054688 267.96875 C 147.726562 267.371094 146.414062 266.746094 145.117188 266.085938 C 143.820312 265.425781 142.542969 264.734375 141.28125 264.011719 C 140.019531 263.289062 138.773438 262.535156 137.546875 261.75 C 136.324219 260.964844 135.117188 260.152344 133.929688 259.308594 C 132.746094 258.464844 131.582031 257.589844 130.4375 256.691406 C 129.296875 255.789062 128.175781 254.859375 127.078125 253.90625 C 125.980469 252.949219 124.90625 251.964844 123.855469 250.957031 C 122.804688 249.945312 121.78125 248.914062 120.78125 247.851562 C 119.785156 246.792969 118.8125 245.710938 117.867188 244.601562 C 116.917969 243.492188 116 242.363281 115.109375 241.210938 C 114.21875 240.058594 113.355469 238.882812 112.523438 237.6875 C 111.691406 236.492188 110.886719 235.277344 110.113281 234.042969 C 109.339844 232.808594 108.597656 231.554688 107.882812 230.28125 C 107.171875 229.011719 106.488281 227.722656 105.839844 226.417969 C 105.191406 225.109375 104.574219 223.789062 103.988281 222.453125 C 103.402344 221.121094 102.851562 219.769531 102.332031 218.40625 C 101.8125 217.042969 101.328125 215.667969 100.875 214.28125 C 100.421875 212.894531 100.003906 211.5 99.621094 210.089844 C 99.238281 208.683594 98.890625 207.265625 98.574219 205.84375 C 98.261719 204.417969 97.980469 202.988281 97.738281 201.546875 C 97.492188 200.109375 97.285156 198.664062 97.109375 197.21875 C 96.9375 195.769531 96.796875 194.316406 96.695312 192.859375 C 96.59375 191.40625 96.527344 189.949219 96.496094 188.488281 C 96.464844 187.03125 96.46875 185.570312 96.507812 184.113281 C 96.546875 182.65625 96.621094 181.199219 96.734375 179.742188 C 96.84375 178.289062 96.992188 176.835938 97.171875 175.390625 C 97.355469 173.941406 97.574219 172.5 97.824219 171.0625 C 98.078125 169.625 98.367188 168.195312 98.6875 166.773438 C 99.011719 165.347656 99.367188 163.933594 99.761719 162.53125 C 100.152344 161.125 100.578125 159.730469 101.039062 158.347656 C 101.496094 156.960938 101.992188 155.589844 102.515625 154.230469 C 103.042969 152.871094 103.605469 151.523438 104.195312 150.191406 C 104.789062 148.859375 105.414062 147.542969 106.070312 146.242188 C 106.730469 144.941406 107.417969 143.65625 108.136719 142.386719 C 108.859375 141.121094 109.609375 139.871094 110.390625 138.640625 C 111.171875 137.410156 111.980469 136.199219 112.820312 135.007812 C 113.660156 133.816406 114.53125 132.648438 115.429688 131.5 C 116.324219 130.355469 117.25 129.230469 118.203125 128.125 C 119.15625 127.023438 120.132812 125.945312 121.140625 124.890625 C 122.144531 123.839844 123.175781 122.808594 124.230469 121.808594 C 125.285156 120.804688 126.367188 119.828125 127.46875 118.878906 C 128.570312 117.929688 129.699219 117.003906 130.847656 116.109375 C 131.992188 115.21875 133.164062 114.351562 134.355469 113.515625 C 135.542969 112.679688 136.753906 111.871094 137.984375 111.09375 C 139.214844 110.316406 140.464844 109.570312 141.730469 108.855469 C 142.996094 108.140625 144.28125 107.457031 145.582031 106.804688 C 146.878906 106.152344 148.195312 105.53125 149.527344 104.945312 C 150.855469 104.355469 152.199219 103.800781 153.558594 103.28125 C 154.914062 102.757812 156.285156 102.273438 157.664062 101.820312 C 159.046875 101.363281 160.4375 100.945312 161.839844 100.558594 C 163.242188 100.175781 164.652344 99.824219 166.070312 99.507812 C 167.488281 99.195312 168.914062 98.914062 170.347656 98.667969 C 171.78125 98.421875 173.21875 98.210938 174.660156 98.039062 C 176.105469 97.863281 177.550781 97.726562 179 97.621094 C 180.449219 97.519531 181.902344 97.453125 183.355469 97.421875 C 184.808594 97.386719 186.261719 97.394531 187.710938 97.433594 C 189.164062 97.472656 190.617188 97.546875 192.066406 97.660156 C 193.515625 97.773438 194.960938 97.917969 196.402344 98.101562 C 197.84375 98.285156 199.28125 98.503906 200.710938 98.757812 C 202.140625 99.011719 203.566406 99.300781 204.984375 99.621094 C 206.402344 99.945312 207.808594 100.304688 209.207031 100.699219 C 210.609375 101.09375 211.996094 101.519531 213.375 101.980469 C 214.753906 102.441406 216.121094 102.9375 217.476562 103.46875 C 218.828125 103.996094 220.171875 104.558594 221.496094 105.152344 C 222.824219 105.75 224.136719 106.375 225.433594 107.035156 C 226.726562 107.695312 228.007812 108.386719 229.269531 109.109375 C 230.53125 109.832031 231.777344 110.585938 233 111.371094 C 234.226562 112.15625 235.433594 112.96875 236.617188 113.8125 C 237.804688 114.65625 238.96875 115.53125 240.113281 116.429688 C 241.253906 117.332031 242.375 118.261719 243.472656 119.214844 C 244.570312 120.171875 245.644531 121.15625 246.695312 122.164062 C 247.742188 123.175781 248.769531 124.207031 249.765625 125.269531 C 250.765625 126.328125 251.738281 127.410156 252.683594 128.519531 C 253.628906 129.628906 254.550781 130.757812 255.441406 131.910156 C 256.332031 133.0625 257.191406 134.238281 258.027344 135.433594 C 258.859375 136.628906 259.664062 137.84375 260.4375 139.078125 C 261.210938 140.3125 261.953125 141.566406 262.667969 142.839844 C 263.378906 144.109375 264.0625 145.398438 264.710938 146.703125 C 265.359375 148.011719 265.976562 149.332031 266.5625 150.667969 C 267.148438 152 267.699219 153.351562 268.21875 154.714844 C 268.738281 156.078125 269.222656 157.453125 269.675781 158.839844 C 270.128906 160.226562 270.542969 161.621094 270.929688 163.03125 C 271.3125 164.4375 271.660156 165.855469 271.976562 167.277344 C 272.289062 168.703125 272.570312 170.132812 272.8125 171.574219 C 273.058594 173.011719 273.265625 174.457031 273.441406 175.902344 C 273.613281 177.351562 273.75 178.804688 273.855469 180.261719 Z M 273.855469 180.261719 " fill-opacity="1" fill-rule="nonzero"/><g clip-path="url(#6cc8499e71)"><path fill="#e6e7e8" d="M 195.296875 105.71875 C 146.253906 105.71875 106.496094 145.636719 106.496094 194.878906 C 106.496094 215.183594 113.257812 233.902344 124.640625 248.894531 C 140.863281 270.253906 166.476562 284.039062 195.296875 284.039062 C 244.339844 284.039062 284.097656 244.121094 284.097656 194.878906 C 284.101562 145.636719 244.34375 105.71875 195.296875 105.71875 Z M 195.296875 105.71875 " fill-opacity="1" fill-rule="nonzero"/></g><path fill="#6dc9f7" d="M 190.496094 100.894531 C 141.453125 100.894531 101.695312 140.8125 101.695312 190.058594 C 101.695312 210.363281 108.453125 229.082031 119.839844 244.070312 C 136.0625 265.433594 161.675781 279.21875 190.496094 279.21875 C 239.539062 279.21875 279.296875 239.300781 279.296875 190.058594 C 279.296875 140.8125 239.539062 100.894531 190.496094 100.894531 Z M 190.496094 100.894531 " fill-opacity="1" fill-rule="nonzero"/><path fill="#d4fbff" d="M 219.925781 239.183594 C 217.007812 239.183594 214.585938 241.289062 214.070312 244.070312 L 190.792969 244.070312 C 190.242188 241.339844 187.839844 239.285156 184.957031 239.285156 C 184.71875 239.285156 184.484375 239.300781 184.253906 239.328125 L 173.089844 219.914062 C 173.890625 218.894531 174.378906 217.609375 174.378906 216.207031 C 174.378906 215.242188 174.144531 214.328125 173.738281 213.519531 L 185.082031 193.796875 C 187.375 193.765625 189.355469 192.429688 190.320312 190.496094 L 214.25 190.496094 C 215.222656 192.464844 217.242188 193.820312 219.582031 193.820312 C 219.621094 193.820312 219.65625 193.816406 219.695312 193.816406 L 230.972656 213.429688 C 230.441406 214.324219 230.132812 215.363281 230.132812 216.480469 C 230.132812 217.914062 230.636719 219.230469 231.472656 220.257812 L 220.574219 239.21875 C 220.359375 239.195312 220.144531 239.183594 219.925781 239.183594 Z M 135.808594 210.46875 C 135.296875 210.46875 134.804688 210.539062 134.328125 210.660156 L 123.25 191.390625 C 124.015625 190.386719 124.476562 189.132812 124.476562 187.765625 C 124.476562 186.433594 124.035156 185.207031 123.304688 184.214844 L 134.796875 164.21875 C 135.128906 164.277344 135.464844 164.3125 135.808594 164.3125 C 138.117188 164.3125 140.113281 162.988281 141.105469 161.0625 L 163.136719 161.0625 C 164.117188 163.019531 166.128906 164.367188 168.460938 164.367188 C 168.742188 164.367188 169.015625 164.34375 169.285156 164.304688 L 180.535156 183.871094 C 179.609375 184.921875 179.042969 186.304688 179.042969 187.820312 C 179.042969 189.347656 179.617188 190.734375 180.554688 191.792969 L 169.851562 210.40625 C 169.390625 210.292969 168.914062 210.226562 168.421875 210.226562 C 165.671875 210.226562 163.367188 212.09375 162.679688 214.632812 L 141.484375 214.632812 C 140.71875 212.21875 138.46875 210.46875 135.808594 210.46875 Z M 185.078125 135.308594 C 187.371094 135.277344 189.351562 133.941406 190.316406 132.003906 L 214.710938 132.003906 C 215.625 133.761719 217.429688 134.972656 219.527344 135.039062 L 231.113281 155.1875 C 230.550781 156.101562 230.222656 157.171875 230.222656 158.320312 C 230.222656 159.660156 230.664062 160.890625 231.402344 161.886719 L 219.90625 181.878906 C 219.800781 181.871094 219.691406 181.863281 219.578125 181.863281 C 217.089844 181.863281 214.957031 183.398438 214.066406 185.578125 L 190.511719 185.578125 C 189.628906 183.386719 187.492188 181.84375 184.996094 181.84375 C 184.941406 181.84375 184.886719 181.847656 184.832031 181.851562 L 173.324219 161.832031 C 174.007812 160.855469 174.414062 159.671875 174.414062 158.386719 C 174.414062 157.265625 174.101562 156.21875 173.566406 155.324219 Z M 185.078125 135.308594 " fill-opacity="1" fill-rule="nonzero"/><path fill="#0089ef" d="M 234.007812 149.761719 L 226.367188 136.472656 C 224.65625 138.261719 222.257812 139.378906 219.59375 139.378906 C 219.355469 139.378906 219.121094 139.363281 218.886719 139.34375 L 227.054688 153.550781 C 228.601562 151.332031 231.128906 149.863281 234.007812 149.761719 Z M 234.007812 149.761719 " fill-opacity="1" fill-rule="nonzero"/><path fill="#0089ef" d="M 219.59375 179.273438 C 222.058594 179.273438 224.292969 180.234375 225.96875 181.792969 L 234.171875 167.535156 C 231.28125 167.488281 228.734375 166.054688 227.148438 163.863281 L 218.226562 179.382812 C 218.675781 179.320312 219.125 179.273438 219.59375 179.273438 Z M 219.59375 179.273438 " fill-opacity="1" fill-rule="nonzero"/><path fill="#0089ef" d="M 234.078125 208.375 L 226.460938 195.128906 C 224.746094 196.980469 222.308594 198.140625 219.59375 198.140625 C 219.410156 198.140625 219.226562 198.121094 219.046875 198.113281 L 227.097656 212.113281 C 228.660156 209.910156 231.195312 208.453125 234.078125 208.375 Z M 234.078125 208.375 " fill-opacity="1" fill-rule="nonzero"/><path fill="#0089ef" d="M 219.59375 237.941406 C 222.027344 237.941406 224.234375 238.878906 225.90625 240.402344 L 234.097656 226.148438 C 231.214844 226.078125 228.675781 224.628906 227.109375 222.429688 L 218.113281 238.070312 C 218.597656 237.992188 219.089844 237.941406 219.59375 237.941406 Z M 219.59375 237.941406 " fill-opacity="1" fill-rule="nonzero"/><path fill="#0089ef" d="M 169.433594 226.695312 C 169.085938 226.695312 168.742188 226.675781 168.40625 226.636719 L 177.066406 241.699219 C 178.691406 239.730469 181.144531 238.476562 183.890625 238.476562 C 184.046875 238.476562 184.199219 238.492188 184.355469 238.5 L 176.011719 223.992188 C 174.316406 225.664062 171.996094 226.695312 169.433594 226.695312 Z M 169.433594 226.695312 " fill-opacity="1" fill-rule="nonzero"/><path fill="#0089ef" d="M 176.441406 193.519531 L 168.160156 207.925781 C 168.578125 207.871094 169 207.828125 169.433594 207.828125 C 172.003906 207.828125 174.332031 208.867188 176.027344 210.546875 L 183.480469 197.585938 C 180.527344 197.449219 177.953125 195.867188 176.441406 193.519531 Z M 176.441406 193.519531 " fill-opacity="1" fill-rule="nonzero"/><path fill="#0089ef" d="M 118.207031 179.273438 C 120.894531 179.273438 123.3125 180.410156 125.023438 182.226562 L 133.492188 167.503906 C 130.640625 167.257812 128.1875 165.660156 126.75 163.347656 L 117.574219 179.304688 C 117.785156 179.292969 117.992188 179.273438 118.207031 179.273438 Z M 118.207031 179.273438 " fill-opacity="1" fill-rule="nonzero"/><path fill="#0089ef" d="M 134.261719 209.972656 C 134.351562 209.972656 134.433594 209.980469 134.519531 209.984375 L 125.613281 194.496094 C 123.964844 196.621094 121.433594 198.015625 118.570312 198.121094 L 127.324219 213.347656 C 128.949219 211.292969 131.449219 209.972656 134.261719 209.972656 Z M 134.261719 209.972656 " fill-opacity="1" fill-rule="nonzero"/><path fill="#0089ef" d="M 161.046875 213.027344 L 140.9375 213.027344 C 142.296875 214.589844 143.125 216.632812 143.125 218.871094 C 143.125 219.59375 143.03125 220.292969 142.867188 220.964844 L 160.792969 220.964844 C 160.308594 219.828125 160.035156 218.578125 160.035156 217.261719 C 160.039062 215.738281 160.40625 214.300781 161.046875 213.027344 Z M 161.046875 213.027344 " fill-opacity="1" fill-rule="nonzero"/><path fill="#0089ef" d="M 142.214844 154.730469 C 142.792969 155.914062 143.125 157.238281 143.125 158.644531 C 143.125 160.09375 142.773438 161.460938 142.160156 162.671875 L 160.945312 162.671875 C 160.367188 161.449219 160.035156 160.085938 160.035156 158.644531 C 160.035156 157.246094 160.347656 155.925781 160.890625 154.730469 Z M 142.214844 154.730469 " fill-opacity="1" fill-rule="nonzero"/><path fill="#0089ef" d="M 176.773438 134.882812 L 168.507812 149.261719 C 168.8125 149.230469 169.121094 149.214844 169.433594 149.214844 C 172.027344 149.214844 174.375 150.269531 176.074219 151.976562 L 183.828125 138.492188 C 180.933594 138.472656 178.375 137.054688 176.773438 134.882812 Z M 176.773438 134.882812 " fill-opacity="1" fill-rule="nonzero"/><path fill="#0089ef" d="M 211.226562 125.671875 L 191.835938 125.671875 C 192.414062 126.859375 192.75 128.1875 192.75 129.597656 C 192.75 131.042969 192.402344 132.40625 191.792969 133.613281 L 210.933594 133.613281 C 210.460938 132.488281 210.199219 131.246094 210.199219 129.945312 C 210.199219 128.40625 210.570312 126.957031 211.226562 125.671875 Z M 211.226562 125.671875 " fill-opacity="1" fill-rule="nonzero"/><path fill="#0089ef" d="M 169.433594 168.078125 C 169.046875 168.078125 168.667969 168.046875 168.292969 168.003906 L 176.992188 183.128906 C 178.617188 181.105469 181.101562 179.808594 183.890625 179.808594 C 184.011719 179.808594 184.132812 179.820312 184.253906 179.828125 L 175.96875 165.417969 C 174.273438 167.0625 171.972656 168.078125 169.433594 168.078125 Z M 169.433594 168.078125 " fill-opacity="1" fill-rule="nonzero"/><path fill="#0089ef" d="M 211.476562 183.96875 L 191.382812 183.96875 C 192.246094 185.34375 192.753906 186.964844 192.753906 188.707031 C 192.753906 189.910156 192.511719 191.058594 192.082031 192.105469 L 210.835938 192.105469 C 210.429688 191.050781 210.199219 189.90625 210.199219 188.707031 C 210.199219 186.976562 210.667969 185.363281 211.476562 183.96875 Z M 211.476562 183.96875 " fill-opacity="1" fill-rule="nonzero"/><path fill="#fa759e" d="M 192.640625 187.28125 C 192.734375 187.859375 192.769531 188.4375 192.75 189.023438 C 192.726562 189.605469 192.652344 190.183594 192.515625 190.75 C 192.382812 191.320312 192.195312 191.871094 191.953125 192.402344 C 191.710938 192.933594 191.421875 193.4375 191.082031 193.910156 C 190.742188 194.382812 190.359375 194.820312 189.933594 195.21875 C 189.507812 195.617188 189.046875 195.96875 188.550781 196.277344 C 188.054688 196.582031 187.535156 196.839844 186.992188 197.042969 C 186.445312 197.246094 185.886719 197.398438 185.3125 197.488281 C 184.738281 197.582031 184.160156 197.621094 183.578125 197.597656 C 182.996094 197.578125 182.421875 197.5 181.855469 197.367188 C 181.289062 197.234375 180.742188 197.042969 180.210938 196.800781 C 179.683594 196.558594 179.183594 196.265625 178.710938 195.925781 C 178.238281 195.582031 177.804688 195.199219 177.40625 194.769531 C 177.011719 194.34375 176.660156 193.882812 176.351562 193.382812 C 176.046875 192.886719 175.792969 192.363281 175.589844 191.816406 C 175.386719 191.269531 175.238281 190.707031 175.144531 190.132812 C 175.050781 189.554688 175.015625 188.972656 175.035156 188.390625 C 175.054688 187.808594 175.132812 187.230469 175.265625 186.660156 C 175.402344 186.09375 175.589844 185.542969 175.832031 185.011719 C 176.070312 184.480469 176.363281 183.976562 176.703125 183.503906 C 177.042969 183.03125 177.425781 182.59375 177.851562 182.195312 C 178.277344 181.796875 178.738281 181.445312 179.234375 181.136719 C 179.730469 180.832031 180.25 180.574219 180.792969 180.371094 C 181.339844 180.164062 181.898438 180.015625 182.472656 179.921875 C 183.046875 179.828125 183.625 179.792969 184.207031 179.8125 C 184.789062 179.835938 185.363281 179.914062 185.929688 180.046875 C 186.496094 180.179688 187.042969 180.371094 187.574219 180.613281 C 188.101562 180.855469 188.601562 181.148438 189.074219 181.488281 C 189.546875 181.832031 189.980469 182.214844 190.378906 182.640625 C 190.773438 183.070312 191.125 183.53125 191.429688 184.03125 C 191.738281 184.527344 191.992188 185.046875 192.195312 185.597656 C 192.398438 186.144531 192.546875 186.707031 192.640625 187.28125 Z M 192.640625 187.28125 " fill-opacity="1" fill-rule="nonzero"/><path fill="#0089ef" d="M 211.582031 242.460938 L 191.277344 242.460938 C 192.207031 243.867188 192.75 245.558594 192.75 247.375 C 192.75 248.4375 192.554688 249.453125 192.214844 250.402344 L 210.699219 250.402344 C 210.378906 249.449219 210.199219 248.433594 210.199219 247.375 C 210.199219 245.574219 210.710938 243.894531 211.582031 242.460938 Z M 211.582031 242.460938 " fill-opacity="1" fill-rule="nonzero"/><path fill="#fa759e" d="M 134.261719 149.746094 C 129.367188 149.746094 125.402344 153.730469 125.402344 158.644531 C 125.402344 163.5625 129.371094 167.542969 134.261719 167.542969 C 139.15625 167.542969 143.125 163.558594 143.125 158.644531 C 143.125 153.730469 139.160156 149.746094 134.261719 149.746094 Z M 134.261719 149.746094 " fill-opacity="1" fill-rule="nonzero"/><path fill="#ffd7e5" d="M 228.988281 129.945312 C 228.988281 130.566406 228.929688 131.179688 228.808594 131.789062 C 228.6875 132.394531 228.507812 132.984375 228.273438 133.558594 C 228.035156 134.128906 227.746094 134.671875 227.40625 135.1875 C 227.0625 135.703125 226.671875 136.179688 226.234375 136.617188 C 225.800781 137.054688 225.324219 137.445312 224.8125 137.789062 C 224.300781 138.132812 223.757812 138.425781 223.1875 138.664062 C 222.617188 138.898438 222.03125 139.078125 221.425781 139.199219 C 220.820312 139.320312 220.210938 139.378906 219.59375 139.378906 C 218.976562 139.378906 218.363281 139.320312 217.761719 139.199219 C 217.15625 139.078125 216.566406 138.898438 215.996094 138.664062 C 215.425781 138.425781 214.886719 138.132812 214.371094 137.789062 C 213.859375 137.445312 213.386719 137.054688 212.949219 136.617188 C 212.511719 136.179688 212.125 135.703125 211.78125 135.1875 C 211.4375 134.671875 211.148438 134.128906 210.914062 133.558594 C 210.675781 132.984375 210.5 132.394531 210.378906 131.789062 C 210.257812 131.179688 210.199219 130.566406 210.199219 129.945312 C 210.199219 129.328125 210.257812 128.714844 210.378906 128.105469 C 210.5 127.5 210.675781 126.910156 210.914062 126.335938 C 211.148438 125.765625 211.4375 125.222656 211.78125 124.707031 C 212.125 124.191406 212.511719 123.714844 212.949219 123.277344 C 213.386719 122.839844 213.859375 122.449219 214.371094 122.101562 C 214.886719 121.757812 215.425781 121.46875 215.996094 121.230469 C 216.566406 120.996094 217.15625 120.816406 217.761719 120.695312 C 218.363281 120.574219 218.976562 120.511719 219.59375 120.511719 C 220.210938 120.511719 220.820312 120.574219 221.425781 120.695312 C 222.03125 120.816406 222.617188 120.996094 223.1875 121.230469 C 223.757812 121.46875 224.300781 121.757812 224.8125 122.101562 C 225.324219 122.449219 225.800781 122.839844 226.234375 123.277344 C 226.671875 123.714844 227.0625 124.191406 227.40625 124.707031 C 227.746094 125.222656 228.035156 125.765625 228.273438 126.335938 C 228.507812 126.910156 228.6875 127.5 228.808594 128.105469 C 228.929688 128.714844 228.988281 129.328125 228.988281 129.945312 Z M 228.988281 129.945312 " fill-opacity="1" fill-rule="nonzero"/><path fill="#ffd7e5" d="M 178.828125 158.644531 C 178.828125 159.265625 178.769531 159.878906 178.648438 160.484375 C 178.527344 161.09375 178.351562 161.683594 178.113281 162.253906 C 177.878906 162.828125 177.589844 163.371094 177.246094 163.886719 C 176.902344 164.402344 176.511719 164.878906 176.078125 165.316406 C 175.640625 165.753906 175.167969 166.144531 174.652344 166.488281 C 174.140625 166.832031 173.597656 167.125 173.03125 167.359375 C 172.460938 167.597656 171.871094 167.777344 171.265625 167.898438 C 170.660156 168.019531 170.050781 168.078125 169.433594 168.078125 C 168.816406 168.078125 168.207031 168.019531 167.601562 167.898438 C 166.996094 167.777344 166.410156 167.597656 165.839844 167.359375 C 165.269531 167.125 164.726562 166.832031 164.214844 166.488281 C 163.703125 166.144531 163.226562 165.753906 162.789062 165.316406 C 162.355469 164.878906 161.964844 164.402344 161.621094 163.886719 C 161.277344 163.371094 160.988281 162.828125 160.753906 162.253906 C 160.519531 161.683594 160.339844 161.09375 160.21875 160.484375 C 160.097656 159.878906 160.039062 159.265625 160.039062 158.644531 C 160.039062 158.027344 160.097656 157.414062 160.21875 156.804688 C 160.339844 156.199219 160.519531 155.609375 160.753906 155.035156 C 160.988281 154.464844 161.277344 153.917969 161.621094 153.40625 C 161.964844 152.890625 162.355469 152.414062 162.789062 151.976562 C 163.226562 151.539062 163.703125 151.144531 164.214844 150.800781 C 164.726562 150.457031 165.269531 150.167969 165.839844 149.929688 C 166.410156 149.691406 166.996094 149.515625 167.601562 149.394531 C 168.207031 149.273438 168.816406 149.210938 169.433594 149.210938 C 170.050781 149.210938 170.660156 149.273438 171.265625 149.394531 C 171.871094 149.515625 172.460938 149.691406 173.03125 149.929688 C 173.597656 150.167969 174.140625 150.457031 174.652344 150.800781 C 175.167969 151.144531 175.640625 151.539062 176.078125 151.976562 C 176.511719 152.414062 176.902344 152.890625 177.246094 153.40625 C 177.589844 153.917969 177.878906 154.464844 178.113281 155.035156 C 178.351562 155.609375 178.527344 156.199219 178.648438 156.804688 C 178.769531 157.414062 178.828125 158.027344 178.828125 158.644531 Z M 178.828125 158.644531 " fill-opacity="1" fill-rule="nonzero"/><path fill="#ffd7e5" d="M 127.601562 188.707031 C 127.601562 189.328125 127.542969 189.941406 127.421875 190.546875 C 127.300781 191.15625 127.125 191.746094 126.886719 192.316406 C 126.652344 192.890625 126.363281 193.433594 126.019531 193.949219 C 125.675781 194.464844 125.285156 194.941406 124.851562 195.378906 C 124.414062 195.816406 123.941406 196.207031 123.425781 196.550781 C 122.914062 196.894531 122.371094 197.1875 121.800781 197.421875 C 121.234375 197.660156 120.644531 197.839844 120.039062 197.960938 C 119.433594 198.082031 118.824219 198.140625 118.207031 198.140625 C 117.589844 198.140625 116.980469 198.082031 116.375 197.960938 C 115.769531 197.839844 115.183594 197.660156 114.613281 197.421875 C 114.042969 197.1875 113.5 196.894531 112.988281 196.550781 C 112.476562 196.207031 112 195.816406 111.5625 195.378906 C 111.128906 194.941406 110.738281 194.464844 110.394531 193.949219 C 110.050781 193.433594 109.761719 192.890625 109.527344 192.316406 C 109.292969 191.746094 109.113281 191.15625 108.992188 190.546875 C 108.871094 189.941406 108.8125 189.328125 108.8125 188.707031 C 108.8125 188.089844 108.871094 187.472656 108.992188 186.867188 C 109.113281 186.257812 109.292969 185.667969 109.527344 185.097656 C 109.761719 184.523438 110.050781 183.980469 110.394531 183.464844 C 110.738281 182.953125 111.128906 182.476562 111.5625 182.035156 C 112 181.597656 112.476562 181.207031 112.988281 180.863281 C 113.5 180.519531 114.042969 180.230469 114.613281 179.992188 C 115.183594 179.753906 115.769531 179.574219 116.375 179.457031 C 116.980469 179.335938 117.589844 179.273438 118.207031 179.273438 C 118.824219 179.273438 119.433594 179.335938 120.039062 179.457031 C 120.644531 179.574219 121.234375 179.753906 121.800781 179.992188 C 122.371094 180.230469 122.914062 180.519531 123.425781 180.863281 C 123.941406 181.207031 124.414062 181.597656 124.851562 182.035156 C 125.285156 182.476562 125.675781 182.953125 126.019531 183.464844 C 126.363281 183.980469 126.652344 184.523438 126.886719 185.097656 C 127.125 185.667969 127.300781 186.257812 127.421875 186.867188 C 127.542969 187.472656 127.601562 188.089844 127.601562 188.707031 Z M 127.601562 188.707031 " fill-opacity="1" fill-rule="nonzero"/><path fill="#ffd7e5" d="M 178.828125 217.261719 C 178.828125 217.882812 178.769531 218.496094 178.648438 219.101562 C 178.527344 219.710938 178.351562 220.300781 178.113281 220.871094 C 177.878906 221.445312 177.589844 221.988281 177.246094 222.503906 C 176.902344 223.019531 176.511719 223.496094 176.078125 223.933594 C 175.640625 224.371094 175.167969 224.761719 174.652344 225.105469 C 174.140625 225.449219 173.597656 225.742188 173.03125 225.976562 C 172.460938 226.214844 171.871094 226.394531 171.265625 226.515625 C 170.660156 226.636719 170.050781 226.695312 169.433594 226.695312 C 168.816406 226.695312 168.207031 226.636719 167.601562 226.515625 C 166.996094 226.394531 166.410156 226.214844 165.839844 225.976562 C 165.269531 225.742188 164.726562 225.449219 164.214844 225.105469 C 163.703125 224.761719 163.226562 224.371094 162.789062 223.933594 C 162.355469 223.496094 161.964844 223.019531 161.621094 222.503906 C 161.277344 221.988281 160.988281 221.445312 160.753906 220.871094 C 160.519531 220.300781 160.339844 219.710938 160.21875 219.101562 C 160.097656 218.496094 160.039062 217.882812 160.039062 217.261719 C 160.039062 216.644531 160.097656 216.03125 160.21875 215.421875 C 160.339844 214.816406 160.519531 214.226562 160.753906 213.652344 C 160.988281 213.082031 161.277344 212.535156 161.621094 212.023438 C 161.964844 211.507812 162.355469 211.03125 162.789062 210.59375 C 163.226562 210.15625 163.703125 209.761719 164.214844 209.417969 C 164.726562 209.074219 165.269531 208.785156 165.839844 208.546875 C 166.410156 208.3125 166.996094 208.132812 167.601562 208.011719 C 168.207031 207.890625 168.816406 207.828125 169.433594 207.828125 C 170.050781 207.828125 170.660156 207.890625 171.265625 208.011719 C 171.871094 208.132812 172.460938 208.3125 173.03125 208.546875 C 173.597656 208.785156 174.140625 209.074219 174.652344 209.417969 C 175.167969 209.761719 175.640625 210.15625 176.078125 210.59375 C 176.511719 211.03125 176.902344 211.507812 177.246094 212.023438 C 177.589844 212.535156 177.878906 213.082031 178.113281 213.652344 C 178.351562 214.226562 178.527344 214.816406 178.648438 215.421875 C 178.769531 216.03125 178.828125 216.644531 178.828125 217.261719 Z M 178.828125 217.261719 " fill-opacity="1" fill-rule="nonzero"/><path fill="#ffd7e5" d="M 228.988281 247.375 C 228.988281 247.992188 228.929688 248.605469 228.808594 249.214844 C 228.6875 249.824219 228.507812 250.414062 228.273438 250.984375 C 228.035156 251.558594 227.746094 252.101562 227.40625 252.617188 C 227.0625 253.128906 226.671875 253.605469 226.234375 254.042969 C 225.800781 254.484375 225.324219 254.875 224.8125 255.21875 C 224.300781 255.5625 223.757812 255.851562 223.1875 256.089844 C 222.617188 256.328125 222.03125 256.503906 221.425781 256.625 C 220.820312 256.746094 220.210938 256.808594 219.59375 256.808594 C 218.976562 256.808594 218.363281 256.746094 217.761719 256.625 C 217.15625 256.503906 216.566406 256.328125 215.996094 256.089844 C 215.425781 255.851562 214.886719 255.5625 214.371094 255.21875 C 213.859375 254.875 213.386719 254.484375 212.949219 254.042969 C 212.511719 253.605469 212.125 253.128906 211.78125 252.617188 C 211.4375 252.101562 211.148438 251.558594 210.914062 250.984375 C 210.675781 250.414062 210.5 249.824219 210.378906 249.214844 C 210.257812 248.605469 210.199219 247.992188 210.199219 247.375 C 210.199219 246.753906 210.257812 246.140625 210.378906 245.535156 C 210.5 244.925781 210.675781 244.335938 210.914062 243.765625 C 211.148438 243.191406 211.4375 242.648438 211.78125 242.132812 C 212.125 241.617188 212.511719 241.140625 212.949219 240.703125 C 213.386719 240.265625 213.859375 239.875 214.371094 239.53125 C 214.886719 239.1875 215.425781 238.894531 215.996094 238.660156 C 216.566406 238.421875 217.15625 238.242188 217.761719 238.121094 C 218.363281 238 218.976562 237.941406 219.59375 237.941406 C 220.210938 237.941406 220.820312 238 221.425781 238.121094 C 222.03125 238.242188 222.617188 238.421875 223.1875 238.660156 C 223.757812 238.894531 224.300781 239.1875 224.8125 239.53125 C 225.324219 239.875 225.800781 240.265625 226.234375 240.703125 C 226.671875 241.140625 227.0625 241.617188 227.40625 242.132812 C 227.746094 242.648438 228.035156 243.191406 228.273438 243.765625 C 228.507812 244.335938 228.6875 244.925781 228.808594 245.535156 C 228.929688 246.140625 228.988281 246.753906 228.988281 247.375 Z M 228.988281 247.375 " fill-opacity="1" fill-rule="nonzero"/><path fill="#ffd7e5" d="M 228.988281 188.707031 C 228.988281 189.328125 228.929688 189.941406 228.808594 190.546875 C 228.6875 191.15625 228.507812 191.746094 228.273438 192.316406 C 228.035156 192.890625 227.746094 193.433594 227.40625 193.949219 C 227.0625 194.464844 226.671875 194.941406 226.234375 195.378906 C 225.800781 195.816406 225.324219 196.207031 224.8125 196.550781 C 224.300781 196.894531 223.757812 197.1875 223.1875 197.421875 C 222.617188 197.660156 222.03125 197.839844 221.425781 197.960938 C 220.820312 198.082031 220.210938 198.140625 219.59375 198.140625 C 218.976562 198.140625 218.363281 198.082031 217.761719 197.960938 C 217.15625 197.839844 216.566406 197.660156 215.996094 197.421875 C 215.425781 197.1875 214.886719 196.894531 214.371094 196.550781 C 213.859375 196.207031 213.386719 195.816406 212.949219 195.378906 C 212.511719 194.941406 212.125 194.464844 211.78125 193.949219 C 211.4375 193.433594 211.148438 192.890625 210.914062 192.316406 C 210.675781 191.746094 210.5 191.15625 210.378906 190.546875 C 210.257812 189.941406 210.199219 189.328125 210.199219 188.707031 C 210.199219 188.089844 210.257812 187.472656 210.378906 186.867188 C 210.5 186.257812 210.675781 185.667969 210.914062 185.097656 C 211.148438 184.523438 211.4375 183.980469 211.78125 183.464844 C 212.125 182.953125 212.511719 182.476562 212.949219 182.035156 C 213.386719 181.597656 213.859375 181.207031 214.371094 180.863281 C 214.886719 180.519531 215.425781 180.230469 215.996094 179.992188 C 216.566406 179.753906 217.15625 179.574219 217.761719 179.457031 C 218.363281 179.335938 218.976562 179.273438 219.59375 179.273438 C 220.210938 179.273438 220.820312 179.335938 221.425781 179.457031 C 222.03125 179.574219 222.617188 179.753906 223.1875 179.992188 C 223.757812 180.230469 224.300781 180.519531 224.8125 180.863281 C 225.324219 181.207031 225.800781 181.597656 226.234375 182.035156 C 226.671875 182.476562 227.0625 182.953125 227.40625 183.464844 C 227.746094 183.980469 228.035156 184.523438 228.273438 185.097656 C 228.507812 185.667969 228.6875 186.257812 228.808594 186.867188 C 228.929688 187.472656 228.988281 188.089844 228.988281 188.707031 Z M 228.988281 188.707031 " fill-opacity="1" fill-rule="nonzero"/><path fill="#fa759e" d="M 234.316406 149.746094 C 229.421875 149.746094 225.453125 153.730469 225.453125 158.644531 C 225.453125 163.5625 229.421875 167.542969 234.316406 167.542969 C 239.210938 167.542969 243.179688 163.558594 243.179688 158.644531 C 243.179688 153.730469 239.210938 149.746094 234.316406 149.746094 Z M 234.316406 149.746094 " fill-opacity="1" fill-rule="nonzero"/><path fill="#fa759e" d="M 192.640625 128.171875 C 192.734375 128.75 192.769531 129.328125 192.75 129.914062 C 192.726562 130.496094 192.648438 131.074219 192.515625 131.640625 C 192.382812 132.210938 192.195312 132.761719 191.953125 133.292969 C 191.710938 133.824219 191.421875 134.328125 191.082031 134.800781 C 190.742188 135.273438 190.355469 135.710938 189.929688 136.109375 C 189.503906 136.507812 189.046875 136.859375 188.550781 137.167969 C 188.054688 137.472656 187.535156 137.730469 186.988281 137.933594 C 186.445312 138.136719 185.886719 138.285156 185.308594 138.378906 C 184.734375 138.472656 184.15625 138.511719 183.578125 138.488281 C 182.996094 138.46875 182.421875 138.390625 181.855469 138.257812 C 181.289062 138.121094 180.742188 137.933594 180.210938 137.691406 C 179.683594 137.449219 179.179688 137.15625 178.710938 136.816406 C 178.238281 136.472656 177.804688 136.089844 177.40625 135.660156 C 177.007812 135.234375 176.660156 134.769531 176.351562 134.273438 C 176.046875 133.777344 175.792969 133.253906 175.589844 132.707031 C 175.386719 132.160156 175.238281 131.597656 175.144531 131.023438 C 175.050781 130.445312 175.015625 129.863281 175.035156 129.28125 C 175.054688 128.695312 175.132812 128.121094 175.265625 127.550781 C 175.398438 126.984375 175.589844 126.433594 175.828125 125.902344 C 176.070312 125.371094 176.363281 124.867188 176.703125 124.394531 C 177.042969 123.917969 177.425781 123.484375 177.851562 123.085938 C 178.277344 122.6875 178.738281 122.335938 179.234375 122.027344 C 179.726562 121.71875 180.25 121.464844 180.792969 121.261719 C 181.339844 121.054688 181.898438 120.90625 182.472656 120.8125 C 183.046875 120.71875 183.625 120.683594 184.207031 120.703125 C 184.789062 120.726562 185.363281 120.800781 185.929688 120.9375 C 186.496094 121.070312 187.042969 121.257812 187.570312 121.503906 C 188.101562 121.746094 188.601562 122.039062 189.074219 122.378906 C 189.546875 122.71875 189.980469 123.105469 190.375 123.53125 C 190.773438 123.960938 191.125 124.421875 191.429688 124.917969 C 191.738281 125.417969 191.992188 125.9375 192.195312 126.484375 C 192.398438 127.035156 192.546875 127.59375 192.640625 128.171875 Z M 192.640625 128.171875 " fill-opacity="1" fill-rule="nonzero"/><path fill="#fa759e" d="M 192.640625 187.28125 C 192.734375 187.859375 192.769531 188.4375 192.75 189.023438 C 192.726562 189.605469 192.652344 190.183594 192.515625 190.75 C 192.382812 191.320312 192.195312 191.871094 191.953125 192.402344 C 191.710938 192.933594 191.421875 193.4375 191.082031 193.910156 C 190.742188 194.382812 190.359375 194.820312 189.933594 195.21875 C 189.507812 195.617188 189.046875 195.96875 188.550781 196.277344 C 188.054688 196.582031 187.535156 196.839844 186.992188 197.042969 C 186.445312 197.246094 185.886719 197.398438 185.3125 197.488281 C 184.738281 197.582031 184.160156 197.621094 183.578125 197.597656 C 182.996094 197.578125 182.421875 197.5 181.855469 197.367188 C 181.289062 197.234375 180.742188 197.042969 180.210938 196.800781 C 179.683594 196.558594 179.183594 196.265625 178.710938 195.925781 C 178.238281 195.582031 177.804688 195.199219 177.40625 194.769531 C 177.011719 194.34375 176.660156 193.882812 176.351562 193.382812 C 176.046875 192.886719 175.792969 192.363281 175.589844 191.816406 C 175.386719 191.269531 175.238281 190.707031 175.144531 190.132812 C 175.050781 189.554688 175.015625 188.972656 175.035156 188.390625 C 175.054688 187.808594 175.132812 187.230469 175.265625 186.660156 C 175.402344 186.09375 175.589844 185.542969 175.832031 185.011719 C 176.070312 184.480469 176.363281 183.976562 176.703125 183.503906 C 177.042969 183.03125 177.425781 182.59375 177.851562 182.195312 C 178.277344 181.796875 178.738281 181.445312 179.234375 181.136719 C 179.730469 180.832031 180.25 180.574219 180.792969 180.371094 C 181.339844 180.164062 181.898438 180.015625 182.472656 179.921875 C 183.046875 179.828125 183.625 179.792969 184.207031 179.8125 C 184.789062 179.835938 185.363281 179.914062 185.929688 180.046875 C 186.496094 180.179688 187.042969 180.371094 187.574219 180.613281 C 188.101562 180.855469 188.601562 181.148438 189.074219 181.488281 C 189.546875 181.832031 189.980469 182.214844 190.378906 182.640625 C 190.773438 183.070312 191.125 183.53125 191.429688 184.03125 C 191.738281 184.527344 191.992188 185.046875 192.195312 185.597656 C 192.398438 186.144531 192.546875 186.707031 192.640625 187.28125 Z M 192.640625 187.28125 " fill-opacity="1" fill-rule="nonzero"/><path fill="#fa759e" d="M 192.640625 245.949219 C 192.734375 246.527344 192.769531 247.105469 192.75 247.691406 C 192.730469 248.273438 192.652344 248.851562 192.519531 249.421875 C 192.382812 249.988281 192.195312 250.539062 191.957031 251.070312 C 191.714844 251.601562 191.421875 252.105469 191.082031 252.578125 C 190.742188 253.050781 190.359375 253.488281 189.933594 253.886719 C 189.507812 254.285156 189.046875 254.636719 188.550781 254.945312 C 188.058594 255.25 187.535156 255.507812 186.992188 255.710938 C 186.445312 255.914062 185.886719 256.066406 185.3125 256.160156 C 184.738281 256.25 184.160156 256.289062 183.578125 256.265625 C 182.996094 256.246094 182.421875 256.167969 181.855469 256.035156 C 181.289062 255.902344 180.742188 255.710938 180.214844 255.46875 C 179.683594 255.226562 179.183594 254.933594 178.710938 254.59375 C 178.238281 254.25 177.804688 253.867188 177.40625 253.4375 C 177.011719 253.011719 176.660156 252.550781 176.355469 252.050781 C 176.046875 251.554688 175.792969 251.03125 175.589844 250.484375 C 175.386719 249.9375 175.238281 249.375 175.144531 248.800781 C 175.050781 248.222656 175.015625 247.644531 175.035156 247.058594 C 175.058594 246.476562 175.132812 245.898438 175.269531 245.328125 C 175.402344 244.761719 175.589844 244.210938 175.832031 243.679688 C 176.074219 243.148438 176.363281 242.644531 176.703125 242.171875 C 177.042969 241.699219 177.425781 241.261719 177.851562 240.863281 C 178.28125 240.464844 178.738281 240.113281 179.234375 239.804688 C 179.730469 239.5 180.25 239.242188 180.796875 239.039062 C 181.339844 238.835938 181.898438 238.683594 182.472656 238.589844 C 183.046875 238.5 183.625 238.460938 184.207031 238.484375 C 184.789062 238.503906 185.363281 238.582031 185.929688 238.714844 C 186.496094 238.847656 187.042969 239.039062 187.574219 239.28125 C 188.101562 239.523438 188.605469 239.816406 189.074219 240.15625 C 189.546875 240.5 189.980469 240.882812 190.378906 241.3125 C 190.773438 241.738281 191.125 242.199219 191.433594 242.699219 C 191.738281 243.195312 191.992188 243.714844 192.195312 244.265625 C 192.398438 244.8125 192.546875 245.375 192.640625 245.949219 Z M 192.640625 245.949219 " fill-opacity="1" fill-rule="nonzero"/><path fill="#fa759e" d="M 234.316406 208.363281 C 229.421875 208.363281 225.453125 212.347656 225.453125 217.261719 C 225.453125 222.175781 229.421875 226.160156 234.316406 226.160156 C 239.210938 226.160156 243.179688 222.175781 243.179688 217.261719 C 243.179688 212.347656 239.210938 208.363281 234.316406 208.363281 Z M 234.316406 208.363281 " fill-opacity="1" fill-rule="nonzero"/><path fill="#fa759e" d="M 134.261719 209.972656 C 129.367188 209.972656 125.402344 213.957031 125.402344 218.871094 C 125.402344 223.785156 129.371094 227.769531 134.261719 227.769531 C 139.15625 227.769531 143.125 223.785156 143.125 218.871094 C 143.125 213.957031 139.160156 209.972656 134.261719 209.972656 Z M 134.261719 209.972656 " fill-opacity="1" fill-rule="nonzero"/><path fill="#3a2c60" d="M 107.210938 188.707031 C 107.210938 194.601562 111.839844 199.421875 117.640625 199.71875 L 124.921875 212.382812 C 123.898438 214.054688 123.300781 216.015625 123.300781 218.117188 C 123.300781 224.1875 128.21875 229.125 134.261719 229.125 C 138.730469 229.125 142.574219 226.429688 144.28125 222.574219 L 159.796875 222.574219 C 161.355469 225.414062 164.125 227.488281 167.402344 228.105469 L 174.882812 241.117188 C 173.652344 242.894531 172.925781 245.050781 172.925781 247.375 C 172.925781 253.445312 177.84375 258.382812 183.890625 258.382812 C 188.285156 258.382812 192.074219 255.765625 193.820312 252.007812 L 209.625 252.007812 C 211.375 255.785156 215.179688 258.414062 219.59375 258.414062 C 225.65625 258.414062 230.589844 253.460938 230.589844 247.375 C 230.589844 244.613281 229.566406 242.09375 227.894531 240.15625 L 234.742188 228.25 C 240.589844 228.023438 245.28125 223.1875 245.28125 217.261719 C 245.28125 211.328125 240.578125 206.488281 234.71875 206.273438 L 228.402344 195.289062 C 229.769531 193.449219 230.589844 191.171875 230.589844 188.707031 C 230.589844 185.976562 229.59375 183.484375 227.957031 181.554688 L 234.816406 169.625 C 240.628906 169.363281 245.28125 164.542969 245.28125 158.644531 C 245.28125 152.683594 240.535156 147.828125 234.644531 147.652344 L 228.3125 136.644531 C 229.734375 134.785156 230.589844 132.464844 230.589844 129.945312 C 230.589844 123.855469 225.65625 118.90625 219.59375 118.90625 C 215.683594 118.90625 212.253906 120.96875 210.304688 124.0625 L 193.355469 124.0625 C 191.449219 120.792969 187.925781 118.589844 183.890625 118.589844 C 177.84375 118.589844 172.925781 123.527344 172.925781 129.597656 C 172.925781 131.742188 173.546875 133.738281 174.609375 135.429688 L 167.507812 147.785156 C 164.269531 148.363281 161.523438 150.363281 159.925781 153.121094 L 143.734375 153.121094 C 141.832031 149.847656 138.300781 147.636719 134.261719 147.636719 C 128.21875 147.636719 123.296875 152.574219 123.296875 158.644531 C 123.296875 160.53125 123.773438 162.304688 124.609375 163.855469 L 116.589844 177.800781 C 111.292969 178.585938 107.210938 183.171875 107.210938 188.707031 Z M 130.746094 169.0625 L 124.601562 179.746094 C 123.328125 178.824219 121.851562 178.167969 120.25 177.867188 L 126.71875 166.613281 C 127.859375 167.703125 129.226562 168.542969 130.746094 169.0625 Z M 143.667969 164.277344 L 159.992188 164.277344 C 161.5625 166.921875 164.1875 168.855469 167.289062 169.472656 L 174.808594 182.546875 C 173.621094 184.304688 172.925781 186.425781 172.925781 188.707031 C 172.925781 190.640625 173.425781 192.453125 174.300781 194.03125 L 167.152344 206.464844 C 164.191406 207.09375 161.679688 208.925781 160.121094 211.417969 L 142.945312 211.417969 C 141.027344 208.917969 138.074219 207.273438 134.730469 207.128906 L 127.507812 194.570312 C 128.574219 192.867188 129.203125 190.863281 129.203125 188.707031 C 129.203125 186.210938 128.363281 183.914062 126.96875 182.0625 L 134.109375 169.644531 C 134.160156 169.644531 134.210938 169.652344 134.265625 169.652344 C 138.257812 169.652344 141.75 167.492188 143.667969 164.277344 Z M 180.996094 140.203125 L 175.628906 149.535156 C 174.332031 148.640625 172.832031 148.027344 171.214844 147.765625 L 176.828125 138.003906 C 178.023438 139.019531 179.441406 139.777344 180.996094 140.203125 Z M 184.476562 140.574219 C 188.226562 140.375 191.476562 138.277344 193.296875 135.21875 L 209.933594 135.21875 C 211.539062 138.175781 214.460938 140.304688 217.898438 140.839844 L 224.902344 153.023438 C 223.921875 154.671875 223.351562 156.589844 223.351562 158.644531 C 223.351562 160.757812 223.957031 162.726562 224.988281 164.40625 L 217.210938 177.933594 C 214.496094 178.539062 212.160156 180.152344 210.605469 182.363281 L 192.832031 182.363281 C 191.03125 179.808594 188.175781 178.054688 184.90625 177.75 L 177.9375 165.632812 C 179.492188 163.726562 180.429688 161.292969 180.429688 158.644531 C 180.429688 156.054688 179.527344 153.671875 178.035156 151.785156 Z M 225.941406 138.949219 L 231.199219 148.097656 C 229.660156 148.554688 228.265625 149.351562 227.085938 150.390625 L 221.570312 140.796875 C 223.175781 140.503906 224.65625 139.859375 225.941406 138.949219 Z M 220.910156 236.421875 L 227.148438 225.574219 C 228.332031 226.609375 229.738281 227.386719 231.285156 227.835938 L 225.421875 238.03125 C 224.082031 237.183594 222.554688 236.621094 220.910156 236.421875 Z M 210.738281 240.855469 L 192.703125 240.855469 C 190.914062 238.421875 188.164062 236.746094 185.011719 236.425781 L 177.980469 224.195312 C 179.507812 222.296875 180.429688 219.886719 180.429688 217.261719 C 180.429688 214.644531 179.511719 212.242188 177.992188 210.347656 L 184.113281 199.707031 C 188.269531 199.621094 191.855469 197.210938 193.644531 193.710938 L 209.804688 193.710938 C 211.40625 196.855469 214.457031 199.125 218.070312 199.628906 L 224.941406 211.585938 C 223.9375 213.246094 223.351562 215.183594 223.351562 217.265625 C 223.351562 219.351562 223.945312 221.300781 224.953125 222.964844 L 217.09375 236.632812 C 214.503906 237.242188 212.265625 238.765625 210.738281 240.855469 Z M 177.183594 238.6875 L 171.128906 228.160156 C 172.746094 227.90625 174.257812 227.308594 175.5625 226.425781 L 181.445312 236.652344 C 179.867188 237.015625 178.417969 237.722656 177.183594 238.6875 Z M 183.890625 180.914062 C 188.171875 180.914062 191.652344 184.410156 191.652344 188.707031 C 191.652344 193.003906 188.171875 196.5 183.890625 196.5 C 179.609375 196.5 176.128906 193.003906 176.128906 188.707031 C 176.128906 184.410156 179.609375 180.914062 183.890625 180.914062 Z M 208.753906 190.496094 L 194.695312 190.496094 C 194.792969 189.914062 194.855469 189.316406 194.855469 188.707031 C 194.855469 187.621094 194.691406 186.570312 194.398438 185.578125 L 209.054688 185.578125 C 208.761719 186.570312 208.597656 187.621094 208.597656 188.707031 C 208.597656 189.316406 208.660156 189.914062 208.753906 190.496094 Z M 176.433594 196.753906 C 177.632812 197.878906 179.078125 198.742188 180.683594 199.234375 L 175.578125 208.113281 C 174.214844 207.183594 172.628906 206.570312 170.921875 206.335938 Z M 227.132812 208.964844 L 221.714844 199.539062 C 223.308594 199.222656 224.777344 198.554688 226.046875 197.625 L 231.261719 206.695312 C 229.71875 207.148438 228.316406 207.929688 227.132812 208.964844 Z M 219.59375 196.535156 C 215.292969 196.535156 211.796875 193.023438 211.796875 188.707031 C 211.796875 184.390625 215.292969 180.882812 219.59375 180.882812 C 223.890625 180.882812 227.386719 184.390625 227.386719 188.707031 C 227.386719 193.023438 223.890625 196.535156 219.59375 196.535156 Z M 221.003906 177.769531 L 227.195312 167.003906 C 228.386719 168.027344 229.796875 168.796875 231.347656 169.234375 L 225.496094 179.410156 C 224.164062 178.554688 222.640625 177.980469 221.003906 177.769531 Z M 175.507812 167.839844 L 181.355469 178.007812 C 179.773438 178.386719 178.324219 179.105469 177.089844 180.085938 L 171.03125 169.554688 C 172.667969 169.316406 174.191406 168.722656 175.507812 167.839844 Z M 127.121094 209.78125 L 121.121094 199.339844 C 122.671875 198.914062 124.089844 198.15625 125.285156 197.140625 L 131.265625 207.535156 C 129.71875 207.980469 128.308594 208.753906 127.121094 209.78125 Z M 110.410156 188.707031 C 110.410156 184.390625 113.90625 180.882812 118.207031 180.882812 C 122.503906 180.882812 126 184.390625 126 188.707031 C 126 193.023438 122.503906 196.535156 118.207031 196.535156 C 113.910156 196.535156 110.410156 193.023438 110.410156 188.707031 Z M 134.261719 225.910156 C 129.984375 225.910156 126.5 222.414062 126.5 218.117188 C 126.5 213.820312 129.984375 210.324219 134.261719 210.324219 C 138.542969 210.324219 142.027344 213.820312 142.027344 218.117188 C 142.027344 222.414062 138.542969 225.910156 134.261719 225.910156 Z M 145.152344 219.359375 C 145.199219 218.949219 145.226562 218.539062 145.226562 218.117188 C 145.226562 216.898438 145.019531 215.730469 144.65625 214.636719 L 158.765625 214.636719 C 158.558594 215.480469 158.4375 216.355469 158.4375 217.261719 C 158.4375 217.980469 158.511719 218.679688 158.640625 219.359375 Z M 161.636719 217.261719 C 161.636719 212.949219 165.132812 209.4375 169.433594 209.4375 C 173.730469 209.4375 177.226562 212.949219 177.226562 217.261719 C 177.226562 221.578125 173.730469 225.089844 169.433594 225.089844 C 165.136719 225.089844 161.636719 221.578125 161.636719 217.261719 Z M 183.890625 255.167969 C 179.609375 255.167969 176.128906 251.671875 176.128906 247.375 C 176.128906 243.078125 179.609375 239.582031 183.890625 239.582031 C 188.171875 239.582031 191.652344 243.078125 191.652344 247.375 C 191.652344 251.671875 188.171875 255.167969 183.890625 255.167969 Z M 194.753906 248.792969 C 194.8125 248.328125 194.851562 247.855469 194.851562 247.375 C 194.851562 246.222656 194.675781 245.113281 194.347656 244.066406 L 209.101562 244.066406 C 208.773438 245.113281 208.597656 246.222656 208.597656 247.375 C 208.597656 247.855469 208.636719 248.328125 208.699219 248.792969 Z M 219.59375 255.199219 C 215.292969 255.199219 211.796875 251.691406 211.796875 247.375 C 211.796875 243.058594 215.292969 239.546875 219.59375 239.546875 C 223.890625 239.546875 227.386719 243.058594 227.386719 247.375 C 227.386719 251.691406 223.890625 255.199219 219.59375 255.199219 Z M 242.078125 217.261719 C 242.078125 221.5625 238.597656 225.058594 234.316406 225.058594 C 230.035156 225.058594 226.554688 221.5625 226.554688 217.261719 C 226.554688 212.964844 230.035156 209.46875 234.316406 209.46875 C 238.597656 209.46875 242.078125 212.964844 242.078125 217.261719 Z M 242.078125 158.644531 C 242.078125 162.941406 238.597656 166.441406 234.316406 166.441406 C 230.035156 166.441406 226.554688 162.945312 226.554688 158.644531 C 226.554688 154.347656 230.035156 150.851562 234.316406 150.851562 C 238.597656 150.851562 242.078125 154.347656 242.078125 158.644531 Z M 219.59375 122.121094 C 223.890625 122.121094 227.386719 125.632812 227.386719 129.945312 C 227.386719 134.261719 223.890625 137.773438 219.59375 137.773438 C 215.292969 137.773438 211.796875 134.261719 211.796875 129.945312 C 211.796875 125.632812 215.292969 122.121094 219.59375 122.121094 Z M 208.933594 127.28125 C 208.722656 128.136719 208.597656 129.027344 208.597656 129.945312 C 208.597656 130.652344 208.667969 131.335938 208.796875 132.003906 L 194.582031 132.003906 C 194.753906 131.226562 194.851562 130.425781 194.851562 129.597656 C 194.851562 128.800781 194.765625 128.027344 194.605469 127.28125 Z M 183.890625 121.804688 C 188.171875 121.804688 191.652344 125.300781 191.652344 129.597656 C 191.652344 133.894531 188.171875 137.390625 183.890625 137.390625 C 179.609375 137.390625 176.128906 133.894531 176.128906 129.597656 C 176.128906 125.300781 179.609375 121.804688 183.890625 121.804688 Z M 169.433594 150.820312 C 173.730469 150.820312 177.226562 154.328125 177.226562 158.644531 C 177.226562 162.960938 173.730469 166.472656 169.433594 166.472656 C 165.136719 166.472656 161.640625 162.960938 161.640625 158.644531 C 161.636719 154.328125 165.136719 150.820312 169.433594 150.820312 Z M 158.683594 156.335938 C 158.523438 157.082031 158.4375 157.851562 158.4375 158.644531 C 158.4375 159.476562 158.535156 160.285156 158.710938 161.0625 L 144.953125 161.0625 C 145.125 160.28125 145.226562 159.476562 145.226562 158.644531 C 145.226562 157.851562 145.140625 157.082031 144.980469 156.335938 Z M 134.261719 150.851562 C 138.542969 150.851562 142.027344 154.347656 142.027344 158.644531 C 142.027344 162.941406 138.542969 166.441406 134.261719 166.441406 C 129.984375 166.441406 126.5 162.945312 126.5 158.644531 C 126.5 154.347656 129.984375 150.851562 134.261719 150.851562 Z M 134.261719 150.851562 " fill-opacity="1" fill-rule="nonzero"/><path fill="#3a2c60" d="M 184.402344 94.042969 C 154.988281 94.042969 127.316406 108.492188 110.382812 132.6875 C 109.875 133.414062 110.050781 134.417969 110.773438 134.929688 C 111.496094 135.4375 112.492188 135.265625 113.003906 134.535156 C 129.335938 111.195312 156.027344 97.257812 184.402344 97.257812 C 232.484375 97.257812 271.605469 136.535156 271.605469 184.8125 C 271.605469 233.089844 232.484375 272.363281 184.402344 272.363281 C 136.324219 272.363281 97.203125 233.089844 97.203125 184.8125 C 97.203125 175.933594 98.523438 167.171875 101.125 158.777344 C 101.386719 157.929688 100.914062 157.027344 100.070312 156.761719 C 99.230469 156.496094 98.328125 156.972656 98.066406 157.820312 C 95.367188 166.527344 94 175.609375 94 184.8125 C 94 234.859375 134.554688 275.578125 184.402344 275.578125 C 234.25 275.578125 274.804688 234.859375 274.804688 184.8125 C 274.804688 134.761719 234.25 94.042969 184.402344 94.042969 Z M 184.402344 94.042969 " fill-opacity="1" fill-rule="nonzero"/><path fill="#3a2c60" d="M 101.355469 153.125 C 101.550781 153.203125 101.753906 153.238281 101.953125 153.238281 C 102.585938 153.238281 103.1875 152.859375 103.441406 152.230469 C 105.011719 148.292969 106.890625 144.4375 109.023438 140.765625 C 109.46875 140 109.210938 139.015625 108.445312 138.570312 C 107.683594 138.125 106.703125 138.378906 106.257812 139.148438 C 104.046875 142.953125 102.097656 146.953125 100.46875 151.035156 C 100.140625 151.859375 100.539062 152.792969 101.355469 153.125 Z M 101.355469 153.125 " fill-opacity="1" fill-rule="nonzero"/><g fill="#000000" fill-opacity="1"><g transform="translate(141.437703, 73.154602)"><g><path d="M 1.359375 -2.140625 L -2.59375 -14.421875 C -2.738281 -14.890625 -2.703125 -15.34375 -2.484375 -15.78125 C -2.265625 -16.21875 -1.914062 -16.515625 -1.4375 -16.671875 L -1.109375 -16.78125 C -0.691406 -16.914062 -0.320312 -16.929688 0 -16.828125 C 0.332031 -16.734375 0.664062 -16.578125 1 -16.359375 L 10.3125 -9.875 L 7.75 -17.828125 C 7.59375 -18.304688 7.625 -18.757812 7.84375 -19.1875 C 8.0625 -19.613281 8.40625 -19.898438 8.875 -20.046875 C 9.351562 -20.203125 9.804688 -20.171875 10.234375 -19.953125 C 10.660156 -19.734375 10.953125 -19.382812 11.109375 -18.90625 L 15.0625 -6.625 C 15.207031 -6.15625 15.164062 -5.695312 14.9375 -5.25 C 14.71875 -4.8125 14.375 -4.519531 13.90625 -4.375 L 13.796875 -4.328125 C 13.390625 -4.203125 13.019531 -4.1875 12.6875 -4.28125 C 12.363281 -4.382812 12.035156 -4.546875 11.703125 -4.765625 L 2.046875 -11.484375 L 4.703125 -3.21875 C 4.859375 -2.738281 4.828125 -2.285156 4.609375 -1.859375 C 4.390625 -1.429688 4.046875 -1.144531 3.578125 -1 C 3.109375 -0.84375 2.660156 -0.875 2.234375 -1.09375 C 1.804688 -1.3125 1.515625 -1.660156 1.359375 -2.140625 Z M 1.359375 -2.140625 "/></g></g></g><g fill="#000000" fill-opacity="1"><g transform="translate(162.053879, 66.843339)"><g><path d="M 0.71875 -2.421875 L 4.578125 -15.84375 C 4.710938 -16.300781 4.929688 -16.675781 5.234375 -16.96875 C 5.546875 -17.269531 5.945312 -17.453125 6.4375 -17.515625 L 6.640625 -17.546875 C 7.128906 -17.609375 7.554688 -17.539062 7.921875 -17.34375 C 8.296875 -17.144531 8.613281 -16.84375 8.875 -16.4375 L 16.234375 -4.578125 C 16.398438 -4.242188 16.492188 -4.007812 16.515625 -3.875 C 16.578125 -3.394531 16.46875 -2.96875 16.1875 -2.59375 C 15.914062 -2.226562 15.546875 -2.007812 15.078125 -1.9375 C 14.660156 -1.882812 14.296875 -1.953125 13.984375 -2.140625 C 13.679688 -2.328125 13.421875 -2.585938 13.203125 -2.921875 L 11.765625 -5.3125 L 4.71875 -4.328125 L 3.953125 -1.515625 C 3.847656 -1.148438 3.664062 -0.851562 3.40625 -0.625 C 3.144531 -0.394531 2.832031 -0.253906 2.46875 -0.203125 C 2.007812 -0.140625 1.597656 -0.242188 1.234375 -0.515625 C 0.878906 -0.785156 0.671875 -1.15625 0.609375 -1.625 C 0.585938 -1.75 0.585938 -1.878906 0.609375 -2.015625 C 0.628906 -2.148438 0.664062 -2.285156 0.71875 -2.421875 Z M 5.578125 -7.640625 L 10.03125 -8.25 L 7.078125 -13.25 Z M 5.578125 -7.640625 "/></g></g></g><g fill="#000000" fill-opacity="1"><g transform="translate(182.897217, 64.218085)"><g><path d="M 2.015625 -1.546875 L 2.484375 -14.4375 C 2.492188 -14.925781 2.675781 -15.335938 3.03125 -15.671875 C 3.394531 -16.015625 3.828125 -16.175781 4.328125 -16.15625 L 4.6875 -16.15625 C 5.125 -16.132812 5.472656 -16.019531 5.734375 -15.8125 C 6.003906 -15.613281 6.257812 -15.351562 6.5 -15.03125 L 13.046875 -5.765625 L 13.359375 -14.109375 C 13.367188 -14.609375 13.550781 -15.019531 13.90625 -15.34375 C 14.257812 -15.675781 14.679688 -15.832031 15.171875 -15.8125 C 15.671875 -15.800781 16.082031 -15.617188 16.40625 -15.265625 C 16.726562 -14.910156 16.882812 -14.484375 16.875 -13.984375 L 16.40625 -1.09375 C 16.382812 -0.601562 16.191406 -0.191406 15.828125 0.140625 C 15.472656 0.472656 15.050781 0.632812 14.5625 0.625 L 14.4375 0.609375 C 14.007812 0.597656 13.65625 0.488281 13.375 0.28125 C 13.101562 0.0820312 12.851562 -0.175781 12.625 -0.5 L 5.84375 -10.109375 L 5.53125 -1.421875 C 5.507812 -0.921875 5.320312 -0.507812 4.96875 -0.1875 C 4.625 0.132812 4.203125 0.289062 3.703125 0.28125 C 3.210938 0.257812 2.800781 0.078125 2.46875 -0.265625 C 2.144531 -0.617188 1.992188 -1.046875 2.015625 -1.546875 Z M 2.015625 -1.546875 "/></g></g></g><g fill="#000000" fill-opacity="1"><g transform="translate(204.386192, 65.219721)"><g><path d="M 13.203125 -13.984375 C 14.421875 -13.710938 15.492188 -13.242188 16.421875 -12.578125 C 17.359375 -11.921875 18.113281 -11.148438 18.6875 -10.265625 C 19.269531 -9.378906 19.660156 -8.390625 19.859375 -7.296875 C 20.054688 -6.210938 20.03125 -5.109375 19.78125 -3.984375 L 19.78125 -3.9375 C 19.53125 -2.800781 19.082031 -1.785156 18.4375 -0.890625 C 17.800781 -0.00390625 17.023438 0.726562 16.109375 1.3125 C 15.203125 1.894531 14.179688 2.285156 13.046875 2.484375 C 11.921875 2.691406 10.75 2.664062 9.53125 2.40625 C 8.3125 2.132812 7.234375 1.664062 6.296875 1 C 5.367188 0.34375 4.609375 -0.429688 4.015625 -1.328125 C 3.429688 -2.234375 3.039062 -3.222656 2.84375 -4.296875 C 2.65625 -5.367188 2.6875 -6.472656 2.9375 -7.609375 L 2.953125 -7.65625 C 3.203125 -8.78125 3.644531 -9.789062 4.28125 -10.6875 C 4.925781 -11.59375 5.703125 -12.332031 6.609375 -12.90625 C 7.515625 -13.488281 8.535156 -13.878906 9.671875 -14.078125 C 10.804688 -14.285156 11.984375 -14.253906 13.203125 -13.984375 Z M 10.296875 -0.8125 C 11.003906 -0.65625 11.675781 -0.640625 12.3125 -0.765625 C 12.945312 -0.890625 13.519531 -1.132812 14.03125 -1.5 C 14.550781 -1.863281 14.992188 -2.316406 15.359375 -2.859375 C 15.722656 -3.398438 15.976562 -4.015625 16.125 -4.703125 L 16.140625 -4.75 C 16.285156 -5.425781 16.304688 -6.085938 16.203125 -6.734375 C 16.109375 -7.390625 15.894531 -7.988281 15.5625 -8.53125 C 15.238281 -9.082031 14.8125 -9.554688 14.28125 -9.953125 C 13.757812 -10.347656 13.144531 -10.617188 12.4375 -10.765625 C 11.75 -10.921875 11.082031 -10.9375 10.4375 -10.8125 C 9.789062 -10.6875 9.207031 -10.441406 8.6875 -10.078125 C 8.164062 -9.722656 7.722656 -9.273438 7.359375 -8.734375 C 7.003906 -8.191406 6.75 -7.582031 6.59375 -6.90625 L 6.59375 -6.859375 C 6.4375 -6.171875 6.40625 -5.5 6.5 -4.84375 C 6.601562 -4.195312 6.820312 -3.597656 7.15625 -3.046875 C 7.488281 -2.492188 7.921875 -2.019531 8.453125 -1.625 C 8.992188 -1.226562 9.609375 -0.957031 10.296875 -0.8125 Z M 10.296875 -0.8125 "/></g></g></g><g fill="#000000" fill-opacity="1"><g transform="translate(226.888685, 70.88195)"><g/></g></g><g fill="#000000" fill-opacity="1"><g transform="translate(115.336273, 304.06548)"><g><path d="M 2.15625 -0.4375 L 7.484375 -10.265625 C 7.691406 -10.648438 8 -10.898438 8.40625 -11.015625 C 8.820312 -11.128906 9.21875 -11.082031 9.59375 -10.875 L 9.875 -10.71875 C 10.207031 -10.539062 10.4375 -10.320312 10.5625 -10.0625 C 10.6875 -9.800781 10.785156 -9.503906 10.859375 -9.171875 L 12.359375 0.546875 L 15.8125 -5.828125 C 16.019531 -6.203125 16.320312 -6.445312 16.71875 -6.5625 C 17.125 -6.675781 17.515625 -6.632812 17.890625 -6.4375 C 18.265625 -6.226562 18.507812 -5.921875 18.625 -5.515625 C 18.75 -5.117188 18.707031 -4.734375 18.5 -4.359375 L 13.171875 5.46875 C 12.960938 5.84375 12.65625 6.085938 12.25 6.203125 C 11.84375 6.328125 11.453125 6.289062 11.078125 6.09375 L 10.984375 6.03125 C 10.648438 5.851562 10.414062 5.632812 10.28125 5.375 C 10.15625 5.113281 10.0625 4.816406 10 4.484375 L 8.421875 -5.609375 L 4.828125 1.015625 C 4.617188 1.390625 4.316406 1.640625 3.921875 1.765625 C 3.523438 1.890625 3.140625 1.847656 2.765625 1.640625 C 2.390625 1.441406 2.140625 1.140625 2.015625 0.734375 C 1.898438 0.328125 1.945312 -0.0625 2.15625 -0.4375 Z M 2.15625 -0.4375 "/></g></g></g><g fill="#000000" fill-opacity="1"><g transform="translate(132.741613, 313.187635)"><g><path d="M 1.53125 -1.546875 L 10.015625 -10.203125 C 10.304688 -10.515625 10.628906 -10.71875 10.984375 -10.8125 C 11.335938 -10.90625 11.710938 -10.878906 12.109375 -10.734375 L 12.296875 -10.671875 C 12.691406 -10.523438 12.988281 -10.296875 13.1875 -9.984375 C 13.394531 -9.679688 13.507812 -9.316406 13.53125 -8.890625 L 14.265625 3.1875 C 14.265625 3.5 14.238281 3.710938 14.1875 3.828125 C 14.050781 4.210938 13.800781 4.488281 13.4375 4.65625 C 13.070312 4.832031 12.695312 4.847656 12.3125 4.703125 C 11.96875 4.578125 11.71875 4.378906 11.5625 4.109375 C 11.40625 3.847656 11.3125 3.546875 11.28125 3.203125 L 11.171875 0.796875 L 5.375 -1.359375 L 3.65625 0.453125 C 3.40625 0.703125 3.132812 0.859375 2.84375 0.921875 C 2.550781 0.992188 2.257812 0.972656 1.96875 0.859375 C 1.59375 0.722656 1.320312 0.472656 1.15625 0.109375 C 1 -0.242188 0.992188 -0.613281 1.140625 -1 C 1.171875 -1.09375 1.222656 -1.1875 1.296875 -1.28125 C 1.378906 -1.382812 1.457031 -1.472656 1.53125 -1.546875 Z M 7.40625 -3.53125 L 11.0625 -2.15625 L 10.84375 -7.203125 Z M 7.40625 -3.53125 "/></g></g></g><g fill="#000000" fill-opacity="1"><g transform="translate(150.774561, 319.599101)"><g><path d="M 4.375 -11.84375 C 4.46875 -12.257812 4.695312 -12.582031 5.0625 -12.8125 C 5.425781 -13.039062 5.816406 -13.109375 6.234375 -13.015625 L 11 -11.9375 C 11.738281 -11.769531 12.398438 -11.523438 12.984375 -11.203125 C 13.566406 -10.878906 14.046875 -10.484375 14.421875 -10.015625 C 14.796875 -9.546875 15.054688 -8.992188 15.203125 -8.359375 C 15.347656 -7.734375 15.332031 -7.03125 15.15625 -6.25 L 15.15625 -6.21875 C 14.90625 -5.125 14.457031 -4.289062 13.8125 -3.71875 C 13.164062 -3.15625 12.390625 -2.800781 11.484375 -2.65625 L 13 0.375 C 13.101562 0.582031 13.175781 0.785156 13.21875 0.984375 C 13.269531 1.179688 13.269531 1.394531 13.21875 1.625 C 13.125 2.050781 12.898438 2.359375 12.546875 2.546875 C 12.203125 2.734375 11.847656 2.785156 11.484375 2.703125 C 11.128906 2.628906 10.851562 2.488281 10.65625 2.28125 C 10.46875 2.082031 10.304688 1.847656 10.171875 1.578125 L 8.0625 -2.796875 L 5.65625 -3.34375 L 4.984375 -0.34375 C 4.890625 0.0703125 4.660156 0.394531 4.296875 0.625 C 3.929688 0.851562 3.539062 0.921875 3.125 0.828125 C 2.707031 0.734375 2.382812 0.503906 2.15625 0.140625 C 1.925781 -0.210938 1.859375 -0.597656 1.953125 -1.015625 Z M 7.140625 -9.9375 L 6.25 -6.015625 L 9.3125 -5.328125 C 10.050781 -5.160156 10.65625 -5.207031 11.125 -5.46875 C 11.601562 -5.726562 11.910156 -6.15625 12.046875 -6.75 L 12.0625 -6.796875 C 12.207031 -7.453125 12.109375 -7.984375 11.765625 -8.390625 C 11.421875 -8.804688 10.878906 -9.097656 10.140625 -9.265625 Z M 7.140625 -9.9375 "/></g></g></g><g fill="#000000" fill-opacity="1"><g transform="translate(168.641719, 323.355974)"><g><path d="M 2.796875 -12.3125 C 2.828125 -12.738281 3.003906 -13.085938 3.328125 -13.359375 C 3.648438 -13.628906 4.023438 -13.75 4.453125 -13.71875 L 9.328125 -13.28125 C 10.078125 -13.21875 10.757812 -13.066406 11.375 -12.828125 C 12 -12.585938 12.53125 -12.253906 12.96875 -11.828125 C 13.414062 -11.410156 13.75 -10.894531 13.96875 -10.28125 C 14.195312 -9.675781 14.273438 -8.984375 14.203125 -8.203125 L 14.203125 -8.171875 C 14.109375 -7.046875 13.773438 -6.160156 13.203125 -5.515625 C 12.628906 -4.878906 11.898438 -4.425781 11.015625 -4.15625 L 12.9375 -1.34375 C 13.0625 -1.144531 13.160156 -0.953125 13.234375 -0.765625 C 13.316406 -0.585938 13.347656 -0.378906 13.328125 -0.140625 C 13.296875 0.296875 13.113281 0.628906 12.78125 0.859375 C 12.457031 1.097656 12.109375 1.203125 11.734375 1.171875 C 11.378906 1.140625 11.085938 1.035156 10.859375 0.859375 C 10.640625 0.679688 10.445312 0.46875 10.28125 0.21875 L 7.609375 -3.84375 L 5.15625 -4.0625 L 4.890625 -1 C 4.847656 -0.570312 4.660156 -0.222656 4.328125 0.046875 C 4.003906 0.328125 3.628906 0.445312 3.203125 0.40625 C 2.773438 0.375 2.425781 0.195312 2.15625 -0.125 C 1.882812 -0.457031 1.769531 -0.835938 1.8125 -1.265625 Z M 5.765625 -10.796875 L 5.40625 -6.78125 L 8.53125 -6.5 C 9.289062 -6.4375 9.882812 -6.566406 10.3125 -6.890625 C 10.75 -7.210938 10.992188 -7.675781 11.046875 -8.28125 L 11.046875 -8.328125 C 11.109375 -8.992188 10.941406 -9.507812 10.546875 -9.875 C 10.160156 -10.238281 9.585938 -10.457031 8.828125 -10.53125 Z M 5.765625 -10.796875 "/></g></g></g><g fill="#000000" fill-opacity="1"><g transform="translate(186.866862, 324.746231)"><g><path d="M 0.8125 -2.03125 L 5.203125 -13.328125 C 5.347656 -13.710938 5.566406 -14.019531 5.859375 -14.25 C 6.148438 -14.476562 6.503906 -14.601562 6.921875 -14.625 L 7.109375 -14.640625 C 7.535156 -14.648438 7.898438 -14.554688 8.203125 -14.359375 C 8.515625 -14.160156 8.765625 -13.875 8.953125 -13.5 L 14.375 -2.671875 C 14.488281 -2.378906 14.550781 -2.171875 14.5625 -2.046875 C 14.582031 -1.640625 14.457031 -1.285156 14.1875 -0.984375 C 13.914062 -0.679688 13.578125 -0.519531 13.171875 -0.5 C 12.804688 -0.476562 12.5 -0.5625 12.25 -0.75 C 12.007812 -0.9375 11.800781 -1.179688 11.625 -1.484375 L 10.578125 -3.65625 L 4.40625 -3.375 L 3.53125 -1.015625 C 3.414062 -0.691406 3.234375 -0.441406 2.984375 -0.265625 C 2.742188 -0.0859375 2.46875 0.00390625 2.15625 0.015625 C 1.75 0.0351562 1.398438 -0.0820312 1.109375 -0.34375 C 0.828125 -0.613281 0.675781 -0.953125 0.65625 -1.359375 C 0.65625 -1.460938 0.664062 -1.570312 0.6875 -1.6875 C 0.71875 -1.800781 0.757812 -1.914062 0.8125 -2.03125 Z M 5.421875 -6.15625 L 9.3125 -6.34375 L 7.140625 -10.875 Z M 5.421875 -6.15625 "/></g></g></g><g fill="#000000" fill-opacity="1"><g transform="translate(205.93192, 323.528295)"><g><path d="M -1.671875 -12.53125 C -1.742188 -12.914062 -1.664062 -13.269531 -1.4375 -13.59375 C -1.207031 -13.925781 -0.90625 -14.125 -0.53125 -14.1875 L 8.375 -15.78125 C 8.75 -15.851562 9.101562 -15.773438 9.4375 -15.546875 C 9.769531 -15.316406 9.972656 -15.007812 10.046875 -14.625 C 10.109375 -14.25 10.023438 -13.898438 9.796875 -13.578125 C 9.566406 -13.253906 9.265625 -13.054688 8.890625 -12.984375 L 5.96875 -12.46875 L 7.6875 -2.828125 C 7.757812 -2.398438 7.671875 -2.007812 7.421875 -1.65625 C 7.179688 -1.3125 6.847656 -1.097656 6.421875 -1.015625 C 6.003906 -0.941406 5.617188 -1.023438 5.265625 -1.265625 C 4.921875 -1.515625 4.710938 -1.851562 4.640625 -2.28125 L 2.921875 -11.921875 L -0.015625 -11.390625 C -0.390625 -11.328125 -0.742188 -11.40625 -1.078125 -11.625 C -1.410156 -11.851562 -1.609375 -12.15625 -1.671875 -12.53125 Z M -1.671875 -12.53125 "/></g></g></g><g fill="#000000" fill-opacity="1"><g transform="translate(222.163068, 320.294996)"><g><path d="M -1.65625 -12.671875 C -1.769531 -13.078125 -1.722656 -13.460938 -1.515625 -13.828125 C -1.316406 -14.203125 -1.007812 -14.453125 -0.59375 -14.578125 C -0.1875 -14.691406 0.203125 -14.640625 0.578125 -14.421875 C 0.953125 -14.210938 1.195312 -13.90625 1.3125 -13.5 L 4.34375 -2.703125 C 4.457031 -2.285156 4.410156 -1.890625 4.203125 -1.515625 C 3.992188 -1.148438 3.6875 -0.910156 3.28125 -0.796875 C 2.863281 -0.671875 2.46875 -0.710938 2.09375 -0.921875 C 1.726562 -1.140625 1.488281 -1.457031 1.375 -1.875 Z M -1.65625 -12.671875 "/></g></g></g><g fill="#000000" fill-opacity="1"><g transform="translate(232.111327, 317.515212)"><g><path d="M -3.140625 -14.015625 C -2.765625 -14.160156 -2.414062 -14.1875 -2.09375 -14.09375 C -1.769531 -14 -1.5 -13.828125 -1.28125 -13.578125 L 5.34375 -6.421875 L 5.25 -16.28125 C 5.257812 -16.5625 5.34375 -16.84375 5.5 -17.125 C 5.664062 -17.40625 5.921875 -17.613281 6.265625 -17.75 C 6.660156 -17.90625 7.046875 -17.90625 7.421875 -17.75 C 7.804688 -17.601562 8.078125 -17.332031 8.234375 -16.9375 C 8.285156 -16.820312 8.316406 -16.703125 8.328125 -16.578125 C 8.335938 -16.453125 8.34375 -16.335938 8.34375 -16.234375 L 8.125 -4.296875 C 8.113281 -3.421875 7.722656 -2.828125 6.953125 -2.515625 L 6.765625 -2.453125 C 5.992188 -2.140625 5.300781 -2.300781 4.6875 -2.9375 L -3.5625 -11.40625 C -3.664062 -11.488281 -3.753906 -11.582031 -3.828125 -11.6875 C -3.898438 -11.789062 -3.960938 -11.90625 -4.015625 -12.03125 C -4.171875 -12.425781 -4.160156 -12.816406 -3.984375 -13.203125 C -3.816406 -13.585938 -3.535156 -13.859375 -3.140625 -14.015625 Z M -3.140625 -14.015625 "/></g></g></g><g fill="#000000" fill-opacity="1"><g transform="translate(249.014556, 310.516988)"><g><path d="M 0.71875 -2.171875 L -4.59375 -11.765625 C -4.800781 -12.128906 -4.84375 -12.515625 -4.71875 -12.921875 C -4.601562 -13.335938 -4.359375 -13.648438 -3.984375 -13.859375 L 2.828125 -17.640625 C 3.171875 -17.828125 3.519531 -17.867188 3.875 -17.765625 C 4.238281 -17.671875 4.519531 -17.445312 4.71875 -17.09375 C 4.90625 -16.757812 4.941406 -16.410156 4.828125 -16.046875 C 4.722656 -15.691406 4.5 -15.421875 4.15625 -15.234375 L -1.3125 -12.203125 L 0.078125 -9.703125 L 4.765625 -12.296875 C 5.097656 -12.484375 5.445312 -12.523438 5.8125 -12.421875 C 6.175781 -12.328125 6.453125 -12.109375 6.640625 -11.765625 C 6.835938 -11.421875 6.878906 -11.066406 6.765625 -10.703125 C 6.648438 -10.347656 6.425781 -10.078125 6.09375 -9.890625 L 1.40625 -7.296875 L 2.84375 -4.71875 L 8.40625 -7.796875 C 8.75 -7.992188 9.097656 -8.035156 9.453125 -7.921875 C 9.816406 -7.816406 10.097656 -7.59375 10.296875 -7.25 C 10.484375 -6.914062 10.519531 -6.570312 10.40625 -6.21875 C 10.300781 -5.863281 10.078125 -5.585938 9.734375 -5.390625 L 2.828125 -1.5625 C 2.453125 -1.351562 2.054688 -1.304688 1.640625 -1.421875 C 1.234375 -1.546875 0.925781 -1.796875 0.71875 -2.171875 Z M 0.71875 -2.171875 "/></g></g></g></svg>